<svg xmlns="http://www.w3.org/2000/svg" viewBox="0 0 94.1 94.11"><defs><style>.cls-1{fill:#d3350c;}.cls-2{fill:#9e2602;}.cls-3{fill:#fff;}</style></defs><title>Asset 1</title><g id="Layer_2" data-name="Layer 2"><g id="_1" data-name="1"><rect class="cls-1" width="94.1" height="94.11" rx="12.55"/><path class="cls-2" d="M94.1,81.55V44h0c0-.06-31.75-31.77-31.81-31.82a1.77,1.77,0,0,0-1.41-.62H33.23a1.53,1.53,0,0,0-1.67,1.37V15a1.27,1.27,0,0,0,.51,1c.06.08,1.66,1.67,1.72,1.72V70.54a11.33,11.33,0,0,0,3.27,7.88L52.72,94.09l0,0H81.55A12.55,12.55,0,0,0,94.1,81.55Z"/><path class="cls-3" d="M60.87,11.55H33.23a1.53,1.53,0,0,0-1.67,1.37V15a1.53,1.53,0,0,0,1.67,1.37h.56V70.54c0,6.63,6,12,13.26,12s13.27-5.39,13.27-12V16.35h.55A1.52,1.52,0,0,0,62.54,15V12.92A1.52,1.52,0,0,0,60.87,11.55ZM47.05,80.75c-6.5,0-11.77-4.75-11.77-10.61V43.41H58.83V70.14C58.83,76,53.55,80.75,47.05,80.75Z"/><rect class="cls-3" x="40.99" y="47.57" width="12.12" height="0.57"/><rect class="cls-3" x="40.99" y="51.87" width="12.12" height="0.57"/><rect class="cls-3" x="36.99" y="56.18" width="20.13" height="0.57"/><rect class="cls-3" x="40.99" y="60.48" width="12.12" height="0.57"/><rect class="cls-3" x="40.99" y="64.78" width="12.12" height="0.57"/></g></g></svg>