<svg id="_1" data-name="1" xmlns="http://www.w3.org/2000/svg" viewBox="0 0 450 450"><defs><style>.cls-1{fill:#bc62a6;}.cls-2{fill:#854375;}.cls-3{fill:#fff;}.cls-4{fill:#d3350c;}.cls-5{fill:#9e2602;}.cls-6{fill:#7d8cac;}.cls-7{fill:#5f6b84;}.cls-8{fill:#a7d51a;}.cls-9{fill:#7da512;}.cls-10{fill:#f4ab77;}.cls-11{fill:#d08252;}.cls-12{fill:#36638e;}.cls-13{fill:#254869;}.cls-14{fill:#49616b;}.cls-15{fill:#2f434c;}</style></defs><title>analyse</title><rect width="450" height="450"/><rect class="cls-1" x="232.8" y="342.26" width="94.1" height="94.1" rx="12.55"/><path class="cls-2" d="M326.9,423.81V386.36L303,362.41a10.36,10.36,0,0,0-7.33-2.8c-5.1,0-9.24,3.2-9.24,7.16V377.4c-.1-.08-14.91-14.89-15-15a10.33,10.33,0,0,0-7.34-2.81c-5.1,0-9.24,3.2-9.24,7.16v45.08a6.27,6.27,0,0,0,2.16,4.6l19.91,19.91h37.46A12.55,12.55,0,0,0,326.9,423.81Z"/><path class="cls-3" d="M264.06,359.61c-5.1,0-9.24,3.2-9.24,7.16v45.08c0,4,4.14,7.16,9.24,7.16s9.25-3.2,9.25-7.16V366.77C273.31,362.81,269.17,359.61,264.06,359.61Zm8.65,51.85c0,3.88-3.87,7-8.65,7s-8.64-3.15-8.64-7V389.31H269V370.17c0-1,.46-1.88,1-1.88s1,.84,1,1.88v19.14h1.61Z"/><path class="cls-3" d="M268,415c-.57,0,1.06-.74,1.06-7.8v-17.9h2.07v18.45C271.1,413,268.54,415,268,415Z"/><path class="cls-3" d="M304.87,411.85V366.77c0-4-4.13-7.16-9.24-7.16s-9.24,3.2-9.24,7.16v45.08c0,4,4.14,7.16,9.24,7.16S304.87,415.81,304.87,411.85Zm-.59-22.54h-1.61v19.14c0,1-.47,1.88-1,1.88s-1-.84-1-1.88V389.31H287V367.16c0-3.88,3.87-7,8.65-7s8.65,3.15,8.65,7Z"/><path class="cls-3" d="M299.54,363.61c-.58,0,1,.74,1,7.8v17.9h2.08V370.86C302.67,365.65,300.11,363.61,299.54,363.61Z"/><rect class="cls-4" x="13.4" y="13.64" width="94.1" height="94.11" rx="12.55"/><path class="cls-5" d="M107.51,95.19V57.62c0-.06-31.75-31.76-31.82-31.81a1.78,1.78,0,0,0-1.41-.63H46.64A1.53,1.53,0,0,0,45,26.56v2.06a1.25,1.25,0,0,0,.51,1c.06.08,1.65,1.67,1.71,1.71V84.18a11.33,11.33,0,0,0,3.27,7.88l15.67,15.66,0,0H95A12.55,12.55,0,0,0,107.51,95.19Z"/><path class="cls-3" d="M74.27,25.18H46.64A1.53,1.53,0,0,0,45,26.56v2.06A1.52,1.52,0,0,0,46.64,30h.55V84.18c0,6.63,6,12,13.27,12s13.26-5.39,13.26-12V30h.55a1.52,1.52,0,0,0,1.67-1.37V26.56A1.53,1.53,0,0,0,74.27,25.18ZM60.46,94.38c-6.51,0-11.78-4.75-11.78-10.6V57.05H72.23V83.78C72.23,89.63,67,94.38,60.46,94.38Z"/><rect class="cls-3" x="54.39" y="61.21" width="12.12" height="0.57"/><rect class="cls-3" x="54.39" y="65.51" width="12.12" height="0.57"/><rect class="cls-3" x="50.39" y="69.81" width="20.13" height="0.57"/><rect class="cls-3" x="54.39" y="74.12" width="12.12" height="0.57"/><rect class="cls-3" x="54.39" y="78.42" width="12.12" height="0.57"/><rect class="cls-6" x="13.4" y="342.26" width="94.1" height="94.1" rx="12.55"/><path class="cls-7" d="M107.51,423.81V386c-.37-.38-26.78-26.74-27.16-27.16a6.73,6.73,0,0,0-3.71-2v.8l-.87-1h-.45a16.07,16.07,0,0,0-3-.78c-.61.05-.7,1.5-.7,2s.08,1.74.56,2c.05.09,8.5,8.53,8.54,8.56,0,.47,0,.95-.06,1.46s-.09,1.13-.16,1.69l0,0c-.06-.11-15.28-15.35-15.42-15.42a.51.51,0,0,0-.38-.3,16.21,16.21,0,0,0-3.06.78H61.1v1.18c-.09,0-.88-.74-.88-1a6.7,6.7,0,0,0-3.7,2C54.46,361,53.62,364.66,54,370a25.3,25.3,0,0,0,1.3,6.67c.11,0,.9.71.9.73l-1.17.42a20.4,20.4,0,0,0,4.36,6.85l7.25,7.24v1l1.47,1.22v0H66.7a77.3,77.3,0,0,1-.94,8.45l-6-6a5.58,5.58,0,0,0-9.33,2H46.79v1.8s-1.31-1.51-1.31-1.51c-5.33,1-8.56,6.35-9,11a13.79,13.79,0,0,0,3.74,11l15.43,15.43H95A12.55,12.55,0,0,0,107.51,423.81Z"/><path class="cls-3" d="M57.46,376a22.39,22.39,0,0,1-1.2-6.07c-.29-4.57.38-7.86,1.94-9.51a4.2,4.2,0,0,1,2-1.33V356.8a6.7,6.7,0,0,0-3.7,2C54.46,361,53.62,364.66,54,370a25.3,25.3,0,0,0,1.3,6.67Z"/><path class="cls-3" d="M68.43,385.4c-3.73,0-7.86-3.34-10-8.78L55,377.85c2.77,7,8.39,11.16,13.45,11.16Z"/><path class="cls-3" d="M68.43,385.4c3.73,0,7.86-3.34,10-8.78l3.42,1.23c-2.77,7-8.39,11.16-13.46,11.16Z"/><path class="cls-3" d="M50.81,424.9a14.19,14.19,0,0,0,9.27-3.29c5.65-4.64,8.9-13.86,9.7-27.44H66.7c-.75,12.55-3.67,21-8.57,25.06-2.81,2.32-6.31,3.08-10.4,2.28-6.31-1.25-8.67-6.55-8.21-11.26.34-3.49,2.31-7,6-8.13v-3.21c-5.33,1-8.56,6.35-9,11-.57,5.9,2.52,13,10.68,14.57A18.91,18.91,0,0,0,50.81,424.9Z"/><rect class="cls-3" x="66.59" y="387.01" width="3.69" height="5.91"/><path class="cls-3" d="M61.54,356.62a16.21,16.21,0,0,1,3.06-.78c.61.05.69,1.5.69,2s-.08,2-.69,2.05a16.89,16.89,0,0,1-3.06-.79H61.1v-2.51Z"/><path class="cls-3" d="M79.41,376a22.39,22.39,0,0,0,1.2-6.07c.28-4.57-.39-7.86-1.94-9.51a4.23,4.23,0,0,0-2-1.33V356.8a6.73,6.73,0,0,1,3.71,2c2.06,2.19,2.9,5.86,2.56,11.23a25.31,25.31,0,0,1-1.29,6.67Z"/><path class="cls-3" d="M75.32,356.62a16.07,16.07,0,0,0-3-.78c-.61.05-.7,1.5-.7,2s.09,2,.7,2.05a16.74,16.74,0,0,0,3-.79h.45v-2.51Z"/><path class="cls-3" d="M46.79,398.62h3.67a5.58,5.58,0,1,1,0,3.7H46.79Zm4.7,1.85a4.24,4.24,0,1,0,4.24-4.23A4.24,4.24,0,0,0,51.49,400.47Z"/><path class="cls-3" d="M52.62,400.47a3.11,3.11,0,1,0,3.11-3.11A3.11,3.11,0,0,0,52.62,400.47Z"/><rect class="cls-8" x="123.1" y="342.26" width="94.1" height="94.1" rx="12.55"/><path class="cls-9" d="M217.2,423.81V390.55c-.13-.14-16.36-16.38-16.51-16.51a4.12,4.12,0,0,0-3.07-1.37h-.94l-3.84-3.8a.73.73,0,0,0-.62-.37h-3.46L182,361.76a.74.74,0,0,0-.62-.36H159a.73.73,0,0,0-.73.73v1.75a.72.72,0,0,0,.36.61c0,.09,1,1,1.06,1.1v5.69l1.46,1.39h-2.18s-3.76-3.75-3.84-3.8a.72.72,0,0,0-.62-.37h-6.38a.74.74,0,0,0-.73.74v1.31a.74.74,0,0,0,.36.62c.08.12,1.39,1.42,1.47,1.47l0,0h-6.51a4.2,4.2,0,0,0-4.2,4.2V410.2a4.16,4.16,0,0,0,1.37,3.08c.36.39,22.79,22.79,23.08,23.08h41.71A12.55,12.55,0,0,0,217.2,423.81Z"/><rect class="cls-3" x="147.35" y="368.5" width="7.85" height="2.78" rx="0.74"/><path class="cls-3" d="M185.85,368.5h6.37a.74.74,0,0,1,.74.74v1.31a.73.73,0,0,1-.73.73h-6.37a.74.74,0,0,1-.74-.74v-1.31A.74.74,0,0,1,185.85,368.5Z"/><rect class="cls-3" x="189.03" y="415.61" width="4.54" height="1.61" rx="0.43"/><rect class="cls-3" x="146.73" y="415.61" width="4.54" height="1.61" rx="0.43"/><rect class="cls-3" x="159.64" y="364.62" width="1.53" height="6.66"/><rect class="cls-3" x="158.22" y="361.4" width="23.87" height="3.22" rx="0.74"/><rect class="cls-3" x="179.14" y="364.62" width="1.52" height="6.66"/><path class="cls-3" d="M201.81,410.2a4.2,4.2,0,0,1-4.19,4.2H142.69a4.2,4.2,0,0,1-4.2-4.2V376.87a4.2,4.2,0,0,1,4.2-4.2h54.93a4.2,4.2,0,0,1,4.19,4.2ZM181.19,390h-7.45V382.5a1.41,1.41,0,0,0-1.41-1.41H168a1.41,1.41,0,0,0-1.41,1.41V390h-7.46a1.41,1.41,0,0,0-1.41,1.41v4.35a1.41,1.41,0,0,0,1.41,1.41h7.46v7.45A1.41,1.41,0,0,0,168,406h4.35a1.41,1.41,0,0,0,1.41-1.41v-7.45h7.45a1.41,1.41,0,0,0,1.41-1.41v-4.35A1.41,1.41,0,0,0,181.19,390Z"/><rect class="cls-8" x="342.49" y="123.18" width="94.1" height="94.11" rx="12.55"/><path class="cls-9" d="M365.29,194c-2.91,3.11-4.27,4.61-3.1,5.78.15.15,17.34,17.35,17.5,17.48h8.86Z"/><path class="cls-9" d="M436.6,204.73V168.21c-1.3-1.3-25-25-26-26l-24.31,24.32c-5.31,5.31-5.87,8.76-10.19,14.75a113.51,113.51,0,0,1-10,11.93l24.05,24.05H424A12.55,12.55,0,0,0,436.6,204.73Z"/><path class="cls-9" d="M436.6,159.41c-.25-.26-17.27-17.28-17-17-2.52-2.53-6.25-2.88-8.34-.8L436.6,167Z"/><path class="cls-3" d="M395.12,166.87a2,2,0,1,1-2.87,0A2,2,0,0,1,395.12,166.87Z"/><path class="cls-3" d="M365.29,194,368,196.7c-3.11,2.9-4.62,4.26-5.78,3.1S362.38,197.13,365.29,194Zm-2.05,4.32a.43.43,0,0,0,.61,0l2.7-2.71-.66-.66-2.66,2.65a.52.52,0,0,0-.14.36A.51.51,0,0,0,363.24,198.34Z"/><path class="cls-3" d="M410.62,142.23l9.13,9.14-24.31,24.31c-5.31,5.31-8.76,5.87-14.76,10.19a114.36,114.36,0,0,0-11.92,10l-2.68-2.68a113.51,113.51,0,0,0,10-11.93c4.32-6,4.88-9.44,10.19-14.75Zm-1.34,6.27L396,161.74l4.21,4.21,13.25-13.24Zm-17.7,17.7a3,3,0,1,0,4.21,0A3,3,0,0,0,391.58,166.2Zm19.25-22.62-23.74,23.74c-5.31,5.31-5.87,8.76-10.2,14.76A110.26,110.26,0,0,1,367,193.84l.66.66a109.28,109.28,0,0,0,9.88-11.76c4.32-6,4.88-9.44,10.19-14.75l23.75-23.75Z"/><path class="cls-3" d="M419.59,142.4c2.53,2.52,2.88,6.25.79,8.34l-9.13-9.14C413.34,139.52,417.07,139.87,419.59,142.4Zm-5.39-1.53c-.75,0-2,1.36-2,1.36l.67.66S415,140.87,414.2,140.87Z"/><polygon class="cls-3" points="399.63 159.34 398.59 160.39 398.61 160.63 398.85 160.65 399.9 159.6 399.88 159.35 399.63 159.34"/><polygon class="cls-3" points="401.27 160.38 400.23 159.34 399.98 159.35 399.96 159.6 401.01 160.64 401.26 160.63 401.27 160.38"/><polygon class="cls-3" points="401.02 160.72 399.97 161.77 399.99 162.01 400.23 162.03 401.28 160.99 401.26 160.74 401.02 160.72"/><polygon class="cls-3" points="403.27 158.46 402.23 159.51 402.25 159.75 402.49 159.77 403.54 158.72 403.52 158.48 403.27 158.46"/><polygon class="cls-3" points="404.65 159.83 403.6 160.88 403.61 161.12 403.86 161.14 404.91 160.09 404.89 159.85 404.65 159.83"/><polygon class="cls-3" points="402.38 162.09 401.34 163.14 401.36 163.38 401.6 163.4 402.65 162.35 402.63 162.11 402.38 162.09"/><polygon class="cls-3" points="402.65 161.76 401.61 160.72 401.36 160.73 401.35 160.98 402.39 162.02 402.64 162.01 402.65 161.76"/><polygon class="cls-3" points="401.89 157.08 400.85 158.13 400.87 158.37 401.11 158.39 402.15 157.34 402.14 157.1 401.89 157.08"/><polygon class="cls-3" points="402.15 159.5 401.1 158.46 400.86 158.47 400.84 158.72 401.89 159.76 402.13 159.75 402.15 159.5"/><polygon class="cls-3" points="404.91 159.5 403.87 158.46 403.62 158.47 403.6 158.72 404.65 159.76 404.89 159.75 404.91 159.5"/><polygon class="cls-3" points="403.53 160.88 402.48 159.84 402.24 159.86 402.22 160.1 403.27 161.15 403.51 161.13 403.53 160.88"/><polygon class="cls-3" points="410.67 153.81 409.62 154.85 409.64 155.1 409.88 155.12 410.93 154.07 410.91 153.82 410.67 153.81"/><polygon class="cls-3" points="407.92 151.06 406.87 152.1 406.89 152.35 407.13 152.37 408.18 151.32 408.16 151.08 407.92 151.06"/><polygon class="cls-3" points="408.17 153.48 407.13 152.43 406.88 152.45 406.87 152.7 407.91 153.74 408.16 153.73 408.17 153.48"/><polygon class="cls-3" points="409.55 154.86 408.51 153.82 408.26 153.83 408.25 154.08 409.29 155.12 409.54 155.11 409.55 154.86"/><polygon class="cls-3" points="404.45 154.53 403.41 155.57 403.42 155.82 403.67 155.83 404.71 154.79 404.7 154.54 404.45 154.53"/><polygon class="cls-3" points="406.09 155.56 405.04 154.52 404.8 154.54 404.78 154.78 405.83 155.82 406.07 155.81 406.09 155.56"/><polygon class="cls-3" points="407.47 156.95 406.42 155.9 406.18 155.92 406.16 156.16 407.21 157.21 407.45 157.19 407.47 156.95"/><polygon class="cls-3" points="405.73 158.68 405.61 158.56 405.36 158.57 405.35 158.82 405.47 158.94 405.72 158.93 405.73 158.68"/><polygon class="cls-3" points="406.43 153.03 406.31 152.9 406.06 152.92 406.04 153.17 406.17 153.29 406.41 153.27 406.43 153.03"/><rect class="cls-10" x="123.1" y="232.72" width="94.1" height="94.1" rx="12.55"/><path class="cls-11" d="M204.65,326.82H180.09l-9.92-9.16L167,313.45a18,18,0,0,0,1.85-.95l-1.63-1.64a4,4,0,0,1-1.31-2.95,4.84,4.84,0,0,1,1.69-3.68l-1.08-1.08a3.36,3.36,0,0,1-1.15-2.73,3.67,3.67,0,0,1,1.49-3.08l-1.44-1.44a4,4,0,0,1-1.19-3,4.38,4.38,0,0,1,2.43-4.14c-.07-.06-2.11-2.1-2.2-2.2a5.18,5.18,0,0,1-1.66-4,5.12,5.12,0,0,1,.44-2.14l-5.68-5.69a3.94,3.94,0,0,1-1.14-1.81c-.22-.21-16.64-16.61-16.81-16.81-.47-.42-.63-.81-.41-1a1,1,0,0,1,.38-.14c-.1-.1-4.92-4.91-5-5-.51-.46-.7-.85-.53-1s5.18-.28,9.93-.25a18.64,18.64,0,0,0,3.52,3.37l0,0a14.36,14.36,0,0,1-2.91-3.34c3.42,0,8.47.11,8.66,0a12.31,12.31,0,0,1,6.23-1.14,5.38,5.38,0,0,1,3.19,1.47l5.5,5.5c0-.42,0-.67,0-.71a3.62,3.62,0,0,1,.64-1.33l-1.36-1.35a3.17,3.17,0,0,1-.73-2,3.31,3.31,0,0,1,3.36-3.26,3.38,3.38,0,0,1,2.12.73l4.75,4.75c-.2-1.68,1-3.32,4-3.78a12.24,12.24,0,0,1,6.22,1.14c.2.09,5.24,0,8.66,0-.13.32.29.77.59,0,4.75,0,9.67,0,9.93.25-1.14-1.21,10.92,11,10.92,11v54.42A12.55,12.55,0,0,1,204.65,326.82Z"/><path class="cls-3" d="M201.13,255.07a38.36,38.36,0,0,0-6-1l-.14.14c-1.24,1.33-4.39,2.38-7.21,2.41a31.77,31.77,0,0,0,5.9,1.17C198.74,258.18,201.82,255.76,201.13,255.07Z"/><path class="cls-3" d="M183.77,252.75s5.88.62,10.74,1.23c-1.31,1.4-4.95,2.54-8,2.28-2.43-.76-4.21-1.52-4.21-1.52Z"/><path class="cls-3" d="M194.93,260.12a26.38,26.38,0,0,0-4.26-1.73l-.19.11a8.54,8.54,0,0,1-4,.82h0a11.92,11.92,0,0,1-2.2-.2,21.52,21.52,0,0,0,4.07,1.8C192.14,262.08,195.26,260.77,194.93,260.12Z"/><path class="cls-3" d="M182.18,255.42s4.37,1.47,7.95,2.76c-1.43.84-4.6,1.08-6.91.37-1.65-1-2.81-1.87-2.81-1.87Z"/><path class="cls-3" d="M185.34,261l-.19.06a5.57,5.57,0,0,1-1.68.22h0a8.76,8.76,0,0,1-3.45-.71,12.62,12.62,0,0,0,2.54,2.11c2.59,1.57,5.51,1,5.47.4A15.77,15.77,0,0,0,185.34,261Z"/><path class="cls-3" d="M179.43,257s2.93,1.93,5.3,3.57a7.82,7.82,0,0,1-5.57-.81,19,19,0,0,1-1.56-2Z"/><path class="cls-3" d="M179.88,262.3h-.17l-.34,0a6.36,6.36,0,0,1-3.74-1.37,8.08,8.08,0,0,0,1.27,2.2c1.53,1.78,4.16,1.82,4.36,1.33A9,9,0,0,0,179.88,262.3Z"/><path class="cls-3" d="M176.6,258s1.68,2.14,3,4a5.75,5.75,0,0,1-4.29-1.7,13.14,13.14,0,0,1-.51-1.95Z"/><path class="cls-3" d="M175.23,263.64l-.13-.05-.25-.11a5.61,5.61,0,0,1-2.34-2.3,6.81,6.81,0,0,0,.3,2c.62,1.83,2.52,2.79,2.8,2.5A7.91,7.91,0,0,0,175.23,263.64Z"/><path class="cls-3" d="M174.05,259.18s.61,2.15,1.06,3.93a5.07,5.07,0,0,1-2.64-2.74,10.7,10.7,0,0,1,.17-1.6Z"/><path class="cls-3" d="M206.28,248.88c-.26-.28-5.18-.28-9.93-.25l0,.11c-.52,1.29-2.23,3-5.37,4a56,56,0,0,0,8.26-.25C204.11,251.81,206.79,249.43,206.28,248.88Z"/><path class="cls-3" d="M170.15,258.53c7.07,0,8-4.9,8-4.9-2.26-2.17-1.65-5.43,2.71-6.11a12.24,12.24,0,0,1,6.22,1.14c.2.09,5.24,0,8.66,0-.42,1-2.1,3.14-6,4.1l-5.75-.29s-2.45,8-13.84,8Z"/><path class="cls-3" d="M139.18,255.07a38.36,38.36,0,0,1,6-1l.13.14c1.25,1.33,4.4,2.38,7.22,2.41a31.93,31.93,0,0,1-5.9,1.17C141.57,258.18,138.48,255.76,139.18,255.07Z"/><path class="cls-3" d="M156.53,252.75s-5.87.62-10.73,1.23c1.31,1.4,4.95,2.54,8,2.28,2.43-.76,4.22-1.52,4.22-1.52Z"/><path class="cls-3" d="M145.38,260.12a25.92,25.92,0,0,1,4.26-1.73l.19.11a8.52,8.52,0,0,0,4,.82h0a11.92,11.92,0,0,0,2.2-.2,21.24,21.24,0,0,1-4.07,1.8C148.16,262.08,145.05,260.77,145.38,260.12Z"/><path class="cls-3" d="M158.12,255.42s-4.37,1.47-8,2.76c1.44.84,4.6,1.08,6.91.37a33.79,33.79,0,0,0,2.82-1.87Z"/><path class="cls-3" d="M155,261l.19.06a5.5,5.5,0,0,0,1.67.22h0a8.72,8.72,0,0,0,3.45-.71,12.35,12.35,0,0,1-2.54,2.11c-2.59,1.57-5.5,1-5.47.4A15.6,15.6,0,0,1,155,261Z"/><path class="cls-3" d="M160.87,257s-2.92,1.93-5.3,3.57a7.82,7.82,0,0,0,5.57-.81,20,20,0,0,0,1.57-2Z"/><path class="cls-3" d="M160.43,262.3h.16l.34,0a6.36,6.36,0,0,0,3.74-1.37,8.08,8.08,0,0,1-1.27,2.2c-1.53,1.78-4.16,1.82-4.36,1.33A9.66,9.66,0,0,1,160.43,262.3Z"/><path class="cls-3" d="M163.7,258s-1.67,2.14-3,4a5.71,5.71,0,0,0,4.28-1.7,14.09,14.09,0,0,0,.52-1.95Z"/><path class="cls-3" d="M165.08,263.64l.12-.05.26-.11a5.59,5.59,0,0,0,2.33-2.3,6.51,6.51,0,0,1-.3,2c-.61,1.83-2.51,2.79-2.8,2.5A8.17,8.17,0,0,1,165.08,263.64Z"/><path class="cls-3" d="M166.26,259.18s-.62,2.15-1.07,3.93a5,5,0,0,0,2.65-2.74,11.46,11.46,0,0,0-.18-1.6Z"/><path class="cls-3" d="M134,248.88c.27-.28,5.18-.28,9.93-.25l0,.11c.52,1.29,2.23,3,5.37,4a55.89,55.89,0,0,1-8.25-.25C136.2,251.81,133.51,249.43,134,248.88Z"/><path class="cls-3" d="M170.15,258.53c-7.07,0-8-4.9-8-4.9,2.25-2.17,1.64-5.43-2.71-6.11a12.31,12.31,0,0,0-6.23,1.14c-.19.09-5.24,0-8.66,0,.42,1,2.1,3.14,6,4.1l5.75-.29s2.46,8,13.84,8Z"/><path class="cls-3" d="M172.22,253.78c-.13-.71-1-2.27-2.05-2.27s-1.91,1.56-2,2.27,1.53,63.88,2,63.88S172.35,254.49,172.22,253.78Z"/><path class="cls-3" d="M168.23,248.09a4.2,4.2,0,0,1,3.31-1.59,3.18,3.18,0,0,1,.62.05,3.38,3.38,0,0,0-2.12-.73,3.31,3.31,0,0,0-3.36,3.26,3.17,3.17,0,0,0,.73,2A3.93,3.93,0,0,1,168.23,248.09Z"/><path class="cls-3" d="M167.91,251.62a3.4,3.4,0,0,0,2.26.85,3.31,3.31,0,0,0,3.37-3.26,3.23,3.23,0,0,0-.85-2.16,3.93,3.93,0,0,0-4.1,1.35A3.67,3.67,0,0,0,167.91,251.62Z"/><path class="cls-3" d="M165.18,277.51A14.32,14.32,0,0,1,169,276l-.23-.05c-.52-.1-1.08-.2-1.71-.3-4.11-.7-8.35-1.41-8.35-3.68,0-1.64,1-2,1.57-2.12l.05-2.68a4.45,4.45,0,0,0-4.06,4.62c0,3.69,4.36,4.93,8.94,5.74Z"/><path class="cls-3" d="M173.36,313.45a18.88,18.88,0,0,1-1.73-.88l-.66.31h0a21.36,21.36,0,0,0,2.38.57Z"/><path class="cls-3" d="M173.51,288.63a4.49,4.49,0,0,1,2.62,4.29c0,2.84-2,3.95-4.74,4.78-2.23.7-3.87,1.24-3.88,2.72,0,1,.73,1.51,2.09,2l-1.06.6a10.28,10.28,0,0,0-1.14.78,3.51,3.51,0,0,1-2.05-3.36,3.66,3.66,0,0,1,1.5-3.08,12.61,12.61,0,0,1,3.91-1.71c2.14-.64,3.18-1.31,3.21-2.74,0-1.71-1.77-2.72-3.2-3.16l1.58-.61C172.71,289,173.51,288.63,173.51,288.63Z"/><path class="cls-3" d="M166.81,288.15c-2.82-1.35-4-3-4-5.61a5.07,5.07,0,0,1,2.6-4.52c2.08-1.32,5.24-1.95,7.94-2.39,4.1-.7,8.34-1.41,8.34-3.68,0-1.64-.95-2-1.56-2.12l0-2.68c2.67.3,3.94,2.11,3.94,4.69,0,3.72-4.31,4.88-8.93,5.68s-10.11,1.59-10.11,5c0,2.12,1.25,2.94,3.73,4.06.37.17.72.36.72.36-.35.13-.77.29-1.15.45C167.66,287.67,166.81,288.15,166.81,288.15Z"/><path class="cls-3" d="M172.85,304.29a4.77,4.77,0,0,1,1.6,3.62c0,1.7-1,3.09-2.94,4.11a16.61,16.61,0,0,1-4.53,1.43c2.43-1.07,5.24-2.89,5.3-5.53a2.85,2.85,0,0,0-1.69-2.6A16.35,16.35,0,0,1,172.85,304.29Z"/><path class="cls-3" d="M169,287.62c2.57-1.13,6.42-1.68,6.42-5.08,0-2.13-2.1-3.12-4.15-3.76,1.42-.31,2.56-.48,3.8-.71a5.06,5.06,0,0,1,2.51,4.47c0,2.54-1.16,4.2-3.9,5.55-4.77,2-7.32,2.39-7.28,4.8,0,1.44,1.1,2.07,2.9,2.64a10.41,10.41,0,0,0-2.62,1.27,4.1,4.1,0,0,1-2.45-3.88C164.17,289.9,166.2,288.81,169,287.62Z"/><path class="cls-3" d="M169.07,303.2c2-1.1,3.77-1.18,3.76-2.78,0-1.07-.87-1.61-1.85-2a20.18,20.18,0,0,0,2.65-1,3.67,3.67,0,0,1,1.37,3c0,3-2.45,3.45-4.79,4.62a3.19,3.19,0,0,0-2.15,2.88,4.68,4.68,0,0,0,1.7,3.29,11.54,11.54,0,0,1-1.06.74c-1.86-1-2.81-2.37-2.81-4A5.26,5.26,0,0,1,169.07,303.2Z"/><path class="cls-3" d="M180.85,270.1a4,4,0,0,1-2.09,1.08c-1.77.35-2.94.15-3.11-.15s2.52-.34,3.31-.88a1.11,1.11,0,0,0,.3-1.45,3.62,3.62,0,0,1-1.82.92c-1.18.24-3,.26-3.1-.31s2.6-2.71,5.71-2.16Zm-3.43-2.55c-.35.12-.67.39-.63.52s.53.23.89.12.64-.35.59-.49S177.78,267.44,177.42,267.55Z"/><path class="cls-3" d="M179.12,270a6.09,6.09,0,0,0-1.85-.26c-.71.06-1.37.69-2,.63s-1-.4-1.11-.38-.34.23,0,.39a2.52,2.52,0,0,0,1.24.33c.77-.05,1.43-.58,2-.58a5.57,5.57,0,0,1,1.4.31Z"/><path class="cls-3" d="M160.3,267.15c3.11-.55,5.76,1.58,5.7,2.16s-1.92.55-3.09.31a3.62,3.62,0,0,1-1.83-.92,1.11,1.11,0,0,0,.3,1.45c.8.54,3.48.58,3.31.88s-1.33.5-3.1.15a4,4,0,0,1-2.09-1.08Zm1.78.55c-.05.14.23.38.59.49s.84,0,.89-.12-.28-.4-.64-.52S162.12,267.56,162.08,267.7Z"/><path class="cls-3" d="M161.23,270a6,6,0,0,1,1.85-.26c.71.06,1.37.69,2,.63s1-.4,1.12-.38.34.23,0,.39a2.52,2.52,0,0,1-1.24.33c-.77-.05-1.43-.58-2-.58a5.57,5.57,0,0,0-1.41.31Z"/><rect class="cls-6" x="123.1" y="123.18" width="94.1" height="94.11" rx="12.55"/><path class="cls-7" d="M204.65,217.28H176.33L138.76,179.7a6,6,0,0,1-2-4,9.79,9.79,0,0,1,6.26-9.35,6.49,6.49,0,0,1,7.77,1.68l5.06,5c2.86-1.44,20.08-12.65,26.5-17.13.33-.23,1.4,0,1.4,0l.08-.11-1.38-1s11-16.32,11.72-17.1c1.24-1.34,2.1-.81,2.1-.81l20.94,21v46.83A12.55,12.55,0,0,1,204.65,217.28Z"/><path class="cls-3" d="M174.05,197.38c2.66-6-3.67-9.42-5-10s-2.09-1.33-1.88-2.43,7.76-13.61,14.69-23.22c-2.29,1.53-3.45,2.38-6,4.06-8.15,12.23-10.73,16.63-11.42,17.55l-.28.38a12.58,12.58,0,0,0-3.53-1.08c-.13,0-.55.71-.55.71s3,1.83,3.14,3.49c-2,2.9-4.59,7.35-4.53,10,.11,4,3.33,6.75,6,6.83A9.79,9.79,0,0,0,174.05,197.38Zm-12.93,3c-3.78-3.77,1.91-14.48,7.47-12C180.89,193.94,166.88,207.88,161.12,200.38Z"/><path class="cls-3" d="M183.16,154.88c.29.06.35.07.5,0,.87-.57,1.94-1.26,3.13-2,4-6.36,9.47-15.92,9.47-15.92s-.86-.53-2.1.81c-.73.78-5.69,8.11-11.72,17.1A3.08,3.08,0,0,1,183.16,154.88Z"/><path class="cls-3" d="M136.75,175.69c.08,2.66,2.82,5.88,6.83,6,2.65.06,7.1-2.58,10-4.53,1.66.15,3.5,3.14,3.5,3.14s.72-.42.71-.55a27.1,27.1,0,0,1-.36-3c1.94-1.45,41.41-26.65,45.24-30.48,1.29-1.29.81-2.1.81-2.1s-13.73,7.91-19.22,11.59c-.89.59-1.5-.07-1.91.22-6.81,4.75-25.77,17.08-26.87,17.28s-1.82-.52-2.43-1.87-4-7.67-10-5A9.79,9.79,0,0,0,136.75,175.69ZM152,171.8c2.5,5.56-8.21,11.25-12,7.47C132.51,173.51,146.45,159.5,152,171.8Zm31.46-13.75h-2.38a1.21,1.21,0,0,1,2.38,0Zm-2.38.38h2.38a1.2,1.2,0,0,1-2.38,0Z"/><path class="cls-3" d="M183.71,158.24a.65.65,0,0,0,0-.19h-2.86a1.37,1.37,0,0,0,0,.19,1.11,1.11,0,0,0,0,.19h2.86A.58.58,0,0,0,183.71,158.24Z"/><rect class="cls-6" x="342.49" y="232.72" width="94.1" height="94.1" rx="12.55"/><path class="cls-7" d="M436.6,314.27v-9.95l-41.83-41.83a2.58,2.58,0,0,0-3.64,0l-.05.05,1.38,1.38-22.82,22.82c-.36-.36-1-1.05-1.38-1.38l-.05.05a2.57,2.57,0,0,0,0,3.64L373,293.8l-6.65,6.65c-2,2-5.27.11-5.75-.37h0l-3-2.95a1.47,1.47,0,0,0-2.09,0l-.12.12a1.47,1.47,0,0,0,0,2.09l27.48,27.48H424A12.55,12.55,0,0,0,436.6,314.27Z"/><path class="cls-7" d="M436.6,297.24l-34.7-34.7L399,265.46l37.62,37.61Z"/><path class="cls-7" d="M436.6,292.45c-2.9-2.89-29.54-29.54-32.42-32.42a1,1,0,0,0-1.41,0l-.36.36a1,1,0,0,0,0,1.42L436.6,296Z"/><path class="cls-7" d="M436.6,257.32l-12.08-12.93-2.73.89-15.54,15.54,30.35,30.35Z"/><rect class="cls-3" x="376.32" y="286.46" width="32.27" height="0.55" transform="translate(-87.81 361.49) rotate(-45)"/><rect class="cls-3" x="381.4" y="290.91" width="0.56" height="5.15" transform="translate(-95.74 355.85) rotate(-45)"/><polygon class="cls-3" points="382.72 288.8 386.36 292.44 385.97 292.84 382.33 289.2 382.72 288.8"/><rect class="cls-3" x="386.73" y="285.58" width="0.56" height="5.15" transform="translate(-90.42 357.94) rotate(-44.99)"/><polygon class="cls-3" points="388.05 283.47 391.69 287.11 391.3 287.51 387.66 283.87 388.05 283.47"/><polygon class="cls-3" points="390.72 280.81 394.36 284.45 393.97 284.84 390.33 281.2 390.72 280.81"/><rect class="cls-3" x="365.11" y="275.25" width="32.27" height="0.56" transform="translate(-83.17 350.26) rotate(-45)"/><rect class="cls-3" x="389.61" y="269.75" width="1.95" height="15.3" transform="translate(-81.75 357.44) rotate(-45)"/><rect class="cls-3" x="400.15" y="263.27" width="4.13" height="5.01" transform="translate(-70.11 362.32) rotate(-45.01)"/><polygon class="cls-3" points="407.17 261.74 406.25 260.82 421.79 245.28 424.52 244.39 407.17 261.74"/><path class="cls-3" d="M407.59,265.58a1,1,0,0,1-1.41,0l-3.77-3.77a1,1,0,0,1,0-1.42l.36-.36a1,1,0,0,1,1.41,0l3.77,3.78a1,1,0,0,1,0,1.41Z"/><path class="cls-3" d="M366.31,300.45c-2,2-5.27.11-5.75-.37l-.05,0-2.91-2.91a1.47,1.47,0,0,0-2.09,0l-.12.12a1.47,1.47,0,0,0,0,2.09L362,306l6.63,6.62a1.47,1.47,0,0,0,2.09,0l.12-.12a1.48,1.48,0,0,0,0-2.09L368,307.47l-.05,0c-.47-.48-2.36-3.75-.36-5.75l23-23-1.23-1.23Z"/><path class="cls-3" d="M382.62,299.72l-14.36-14.36-.05.05a2.57,2.57,0,0,0,0,3.64l10.72,10.72a2.57,2.57,0,0,0,3.64,0Z"/><path class="cls-3" d="M391.08,262.54l14.36,14.37.05-.05a2.57,2.57,0,0,0,0-3.64l-10.72-10.73a2.58,2.58,0,0,0-3.64,0Z"/><path class="cls-3" d="M396.69,282.12,385.87,271.3l7-7,10.82,10.82Zm-3.7-3.58,3.64,3.63.39-.39-3.63-3.64Zm2.67-2.67,3.64,3.64.39-.4-3.64-3.64Zm2.66-2.67,3.64,3.64.4-.39-3.64-3.64Z"/><path class="cls-3" d="M426.28,250.88a1.76,1.76,0,0,1-3.52,0c0-1,1.76-3.57,1.76-3.57S426.28,249.92,426.28,250.88Z"/><rect class="cls-4" x="232.8" y="123.18" width="94.1" height="94.11" rx="12.55"/><path class="cls-5" d="M326.9,171.31l-21.19-21.19c-4.14-4.06-10.14-5.12-16-3.72a15.7,15.7,0,0,0-9.7,6.67l-2.32-2.32a16.2,16.2,0,0,0-7.83-4.35c-7.68-1.84-15.63.55-19.27,8.42-2,4.38-1.61,8.48-.68,12.76l.06.21,2.67,2.63H250.9a25.91,25.91,0,0,0,5.89,8.56l38.3,38.3h19.26a12.55,12.55,0,0,0,12.55-12.55Z"/><path class="cls-3" d="M259.33,166.52l3-6,4.59,12.36,8.63-20.24L284,180.31l7.79-20.8,3.39,11.2.09-.18c1-2,4.54-2.74,7.27-2.74h7.11a1.42,1.42,0,0,0,.05-.22c.59-2.69,1.94-7.08-.68-12.75-3.64-7.87-11.59-10.26-19.27-8.42a15.41,15.41,0,0,0-9.92,7.06,15.48,15.48,0,0,0-9.93-7.06c-7.68-1.84-15.63.55-19.27,8.42-2,4.38-1.61,8.48-.68,12.76l.06.21h4.43C257.46,167.79,259.15,166.89,259.33,166.52Z"/><path class="cls-3" d="M297.6,171.7,295,177l-3.05-10.41-8.42,21.89-8.46-27.85-8,18.83-4.81-12.82-.52,1.05c-1,2-4.55,2.73-7.28,2.73H250.9a27,27,0,0,0,8.7,11c9.08,6.91,18.13,8.37,20.2,13.23,2.06-4.86,11.11-6.32,20.19-13.23a26.48,26.48,0,0,0,8.81-11h-6.29C299.5,170.42,297.77,171.33,297.6,171.7Z"/><rect class="cls-12" x="342.49" y="13.64" width="94.1" height="94.11" rx="12.55"/><path class="cls-13" d="M424,107.74A12.55,12.55,0,0,0,436.6,95.19V66.76c-.06,0-39.25-39.24-39.22-39.34l-8.32-2.92-.64,1.85,1.52,1.32v0l-1.46-.51,1,2.68a10.47,10.47,0,0,0,1.41,1.29v0l-1.67-.58-.78,2.22,1.51,1.35-3.8-1.33-8.69,24.76,1.76,1.59L378,58.77l-.69,2,1.73,1.68L378,62.05l-.88,2.51,6.12,6.11H371V72.6l2.7,2.59h-1.06a1,1,0,0,0-1,1.08,1.08,1.08,0,0,0,.46.89c.13.19,13.68,13.72,13.85,13.87H370.09l-3.57,5.85,11.11,10.86Z"/><rect class="cls-3" x="372.82" y="42.26" width="26.24" height="8.81" transform="translate(214.18 395.42) rotate(-70.67)"/><rect class="cls-3" x="389.75" y="30.2" width="2.36" height="4.5" transform="translate(231.09 390.68) rotate(-70.7)"/><rect class="cls-3" x="391.93" y="22.48" width="1.95" height="8.81" transform="translate(237.61 388.79) rotate(-70.69)"/><polygon class="cls-3" points="389.45 29.86 391.58 30.6 393.7 31.35 396.15 29.87 392.31 28.52 388.47 27.18 389.45 29.86"/><rect class="cls-3" x="379.92" y="57.43" width="2.08" height="6.93" transform="translate(197.3 400.17) rotate(-70.65)"/><rect class="cls-3" x="378.5" y="61.7" width="2.67" height="4.78" transform="translate(193.6 401.29) rotate(-70.67)"/><polygon class="cls-3" points="405.85 96.88 366.52 96.88 370.09 91.03 400.92 91.03 405.85 96.88"/><path class="cls-3" d="M411.53,72.37a17.34,17.34,0,0,1-10.61,11v6.18h-8.09v-6.1L385.42,82a4.51,4.51,0,0,1-3.64-4.42V76.5h-.88a1,1,0,0,1-1,.85h-7.35a1.09,1.09,0,0,1,0-2.16h7.35a1,1,0,0,1,1,.85h.88V72.6H371V70.67h14.31v2.59c0,5.22,1.2,5.22,6.15,5.22h1.42c6.94-.22,11.42-3.85,12.8-8,1.58-4.72,1.22-10.2-1.83-13.85A18.41,18.41,0,0,0,395.48,51a21.32,21.32,0,0,0-3.43-.87,3.13,3.13,0,0,1-.79-1.48,3.25,3.25,0,0,1,2.33-3.88,27.41,27.41,0,0,1,3.06.77A24,24,0,0,1,408,53.07,20.47,20.47,0,0,1,411.53,72.37ZM399,81.48a2,2,0,1,0-2,2A2,2,0,0,0,399,81.48ZM395,47.53a1.34,1.34,0,1,0-1.34,1.33A1.33,1.33,0,0,0,395,47.53Z"/><rect class="cls-14" x="342.49" y="342.26" width="94.1" height="94.1" rx="12.55"/><path class="cls-15" d="M436.6,423.81V405.36l-47.09-47.08a5.38,5.38,0,1,0-7.61,7.61L385,369a2.27,2.27,0,0,0-1.72,2.19V388s-4.52-4.54-4.63-4.63a2.26,2.26,0,0,0-2.49-.67,20.25,20.25,0,0,0-7.33,33.51L389,436.36h35A12.55,12.55,0,0,0,436.6,423.81Z"/><path class="cls-3" d="M415.86,405.28a2.18,2.18,0,0,0-.36-3l-13.17-11H387.85l0-7.49a.3.3,0,0,1,.3-.29h12.41a2.27,2.27,0,1,0,0-4.53H388.18a.3.3,0,0,1-.3-.29l0-7.5a2.27,2.27,0,0,0-4.53,0v22.84a1.79,1.79,0,0,0,1.78,1.79h15.57l12,10.13a2,2,0,0,0,2.94-.35Z"/><path class="cls-3" d="M385.59,367.35A5.4,5.4,0,1,1,391,362a5.4,5.4,0,0,1-5.38,5.39Z"/><path class="cls-3" d="M382.9,407.71a5.4,5.4,0,1,1,5.39-5.39,5.39,5.39,0,0,1-5.39,5.39Z"/><path class="cls-3" d="M383.07,422.05a20.26,20.26,0,0,1-6.87-39.33,2.26,2.26,0,1,1,1.53,4.25A15.75,15.75,0,1,0,398.5,404.9a2.26,2.26,0,0,1,4.44.89,20.32,20.32,0,0,1-19.87,16.26Z"/><rect class="cls-14" x="123.1" y="13.64" width="94.1" height="94.11" rx="12.55"/><path class="cls-15" d="M217.2,95.19V67c-.25-.26-29.34-29.36-29.53-29.53a4.57,4.57,0,0,0-1.35-1l-3.11-3.1a6.11,6.11,0,0,0-1.21-1,7.94,7.94,0,0,0-4.25-.8c-.29-.19-5.49-5.71-5.9-5.71h-3.4a.4.4,0,0,0-.43.36v3.3c0,.25,1,1,1,1h-.54a.4.4,0,0,0-.43.36V34c0,.2.3.4.3.4l1.23,1.22h-1.43l-3.67-3.87s-3.81-.82-6.14.57c-2,1.19-3.1,3.45-1.79,5.2L155.1,36s-2.23.14-3.57,3.07a4,4,0,0,0,.85,4.73l6.54,6.54h-.36s-7.36-7.37-7.82-7.73A4.75,4.75,0,0,0,147.18,46a3.39,3.39,0,0,0,1.11,3.48c.11.13,2.56,2.56,2.67,2.67l-.77.51a17.86,17.86,0,0,0-3.68-3.22,6.37,6.37,0,0,0-2,5,5.72,5.72,0,0,0,2,4.06l2.91,2.92-1,.6a29.83,29.83,0,0,0-4.19-3.9,6.08,6.08,0,0,0-1.16,4.65,5.53,5.53,0,0,0,1.71,3.13l3,3.06-.51.44c-1-.9.17,0-3.55-3.39A4.53,4.53,0,0,0,142,68.64a3.64,3.64,0,0,0,.26,3.39,4.44,4.44,0,0,0-1,3.23c0,2,.64,2.65.85,2.8a.34.34,0,0,0,.06.06,5.36,5.36,0,0,0-.74,2.42,4.23,4.23,0,0,0,.92,2.95,5.75,5.75,0,0,0-.92,3.05,8,8,0,0,0,2.4,5.8l15.4,15.4h45.48A12.55,12.55,0,0,0,217.2,95.19Z"/><path class="cls-3" d="M177.56,37.84v1.73s4.12.16,5.95-1.73.6-4.26-1.51-5.53c-2.33-1.39-6.15-.57-6.15-.57v1.38s4.6-.64,6.05,1.55S181.23,37.67,177.56,37.84Z"/><path class="cls-3" d="M173.84,43.54s8.25,2,11.83-.29c3.82-2.42-.84-5.32-.84-5.32L185.2,36s2.23.14,3.58,3.07-.47,5.78-4.9,6.59c-4.23.77-10-.2-10-.2Z"/><path class="cls-3" d="M173.84,49.56s10.73,2.27,15.37-.73c4-2.58-.54-4.26-.54-4.26l.89-1.92A4.75,4.75,0,0,1,193.12,46c.94,3.07-3.1,5.86-8.82,6.62a33,33,0,0,1-10.46-.67Z"/><path class="cls-3" d="M173.84,56.09s6.64,3.2,12.85,2.67,7-4.17,6.57-5.57A4,4,0,0,0,191.8,51l2-1.54a6.4,6.4,0,0,1,2,5c-.11,3.22-3.38,6.68-10.44,6.68a23,23,0,0,1-11.51-2.84Z"/><path class="cls-3" d="M173.84,61.1s6.83,5,13.35,5.2c6.06.16,7.79-2.63,7.83-4.7a2.75,2.75,0,0,0-.73-2l1.77-1.46a6.12,6.12,0,0,1,1.16,4.65c-.4,3.07-4.73,6.79-11.63,5.89a27.85,27.85,0,0,1-11.75-5Z"/><polygon class="cls-3" points="190.19 46.94 188.98 47.97 185.87 46.24 187.71 45.04 190.19 46.94"/><polygon class="cls-3" points="189.21 52.06 187.08 53.15 191.51 55.69 192.72 54.36 189.21 52.06"/><path class="cls-3" d="M196.52,66a4.55,4.55,0,0,1,1.81,2.65,3.61,3.61,0,0,1-.26,3.39,4.47,4.47,0,0,1,1,3.23c0,2.36-.92,2.85-.92,2.85a5.48,5.48,0,0,1,.75,2.43,4.27,4.27,0,0,1-.93,2.95,5.8,5.8,0,0,1,.93,3.05,8.07,8.07,0,0,1-5.68,7.77c-4.76,1.62-8.49-2.36-11.13-6.39s-9.85-18.48-9.85-18.48l1.56-3s10.24,7.52,17.5,7.52,3.22-6.13,3.22-6.13Zm-22.68,2.78-.73,1.08s3.95,6.45,5.28,5.52S173.84,68.77,173.84,68.77Zm9.71,9c-.77,1,2.74,4.24,7,3.86a8,8,0,0,0,6.66-5.39c.36-1.4-.26-2.77-1.45-2.09s-1.38,2.88-4.94,3.16S184.34,76.76,183.55,77.79Zm7.52,10.75c5-.27,6.22-6.91,5.87-7.18s-1.57,1.58-3.72,3-7.05-.53-7.52.39S186,88.81,191.07,88.54Zm-.19,4.51c5.09,0,5.75-5.47,5.75-5.47a7.8,7.8,0,0,1-5.23,3.07c-3.83.63-6-1.62-6.24-1.08C184.77,90.38,187.14,93.05,190.88,93.05Zm-9.67-8.81c1.06,1.64,2.23-.12,1.35-1.41-.66-1-3.49-4.13-3.8-3.86S180.14,82.6,181.21,84.24Z"/><polygon class="cls-3" points="194.91 71.04 192.26 68.78 190.72 69.19 193.79 72.42 194.91 71.04"/><polygon class="cls-3" points="193.72 63.09 190.34 61.1 188.76 61.86 192.14 64.55 193.72 63.09"/><polygon class="cls-3" points="185.56 58.1 187.46 57.68 180.71 53.42 177.41 53.19 185.56 58.1"/><polygon class="cls-3" points="185.56 58.1 187.46 57.68 180.71 53.42 177.41 53.19 185.56 58.1"/><path class="cls-3" d="M174.28,37.21a3.08,3.08,0,0,1-1-1.56H167a3.08,3.08,0,0,1-1,1.56,4.72,4.72,0,0,1-2.6.57v2a6.59,6.59,0,0,1,3.07,1.09,2.58,2.58,0,0,1,1.13,1.73h5.07a2.59,2.59,0,0,1,1.12-1.73,6.62,6.62,0,0,1,3.08-1.09v-2A4.75,4.75,0,0,1,174.28,37.21Z"/><path class="cls-3" d="M173.09,43.54h-5.87s-.15,22.37.28,23.37a2.89,2.89,0,0,0,5.3,0C173.23,65.91,173.09,43.54,173.09,43.54Z"/><path class="cls-3" d="M162.75,37.84v1.73s-4.12.16-5.95-1.73-.61-4.26,1.51-5.53c2.33-1.39,6.14-.57,6.14-.57v1.38s-4.6-.64-6,1.55S159.07,37.67,162.75,37.84Z"/><path class="cls-3" d="M166.47,43.54s-8.26,2-11.83-.29c-3.83-2.42.83-5.32.83-5.32L155.1,36s-2.23.14-3.57,3.07.46,5.78,4.89,6.59c4.24.77,10.05-.2,10.05-.2Z"/><path class="cls-3" d="M166.47,49.56s-10.74,2.27-15.37-.73c-4-2.58.53-4.26.53-4.26l-.89-1.92A4.75,4.75,0,0,0,147.18,46c-.94,3.07,3.1,5.86,8.82,6.62a33.06,33.06,0,0,0,10.47-.67Z"/><path class="cls-3" d="M166.47,56.09s-6.64,3.2-12.86,2.67-7-4.17-6.56-5.57A4,4,0,0,1,148.51,51l-2-1.54a6.37,6.37,0,0,0-2,5c.11,3.22,3.37,6.68,10.43,6.68a23,23,0,0,0,11.52-2.84Z"/><path class="cls-3" d="M166.47,61.1s-6.83,5-13.35,5.2c-6.07.16-7.8-2.63-7.84-4.7a2.8,2.8,0,0,1,.73-2l-1.76-1.46a6.08,6.08,0,0,0-1.16,4.65c.39,3.07,4.73,6.79,11.63,5.89a27.85,27.85,0,0,0,11.75-5Z"/><polygon class="cls-3" points="150.12 46.94 151.33 47.97 154.44 46.24 152.59 45.04 150.12 46.94"/><polygon class="cls-3" points="151.1 52.06 153.23 53.15 148.79 55.69 147.59 54.36 151.1 52.06"/><path class="cls-3" d="M145.74,67.78s-4,6.13,3.23,6.13,17.5-7.52,17.5-7.52l1.55,3s-7.19,14.45-9.84,18.48-6.38,8-11.13,6.39a8,8,0,0,1-5.68-7.77,5.75,5.75,0,0,1,.92-3.05,4.23,4.23,0,0,1-.92-2.95,5.33,5.33,0,0,1,.75-2.43s-1-.49-.92-2.85a4.44,4.44,0,0,1,1-3.23,3.64,3.64,0,0,1-.26-3.39A4.53,4.53,0,0,1,143.79,66Zm16.18,7.59c1.32.93,5.27-5.52,5.27-5.52l-.72-1.08S160.6,74.45,161.92,75.37Zm-12.47,2c-3.57-.28-3.77-2.51-4.94-3.16s-1.82.69-1.45,2.09a8,8,0,0,0,6.65,5.39c4.3.38,7.82-2.86,7-3.86S153,77.62,149.45,77.33Zm5.16,7.41c-.48-.92-5.37,1-7.52-.39s-3.38-3.26-3.73-3,.85,6.91,5.88,7.18S155.07,85.62,154.61,84.74Zm.54,4.83c-.26-.54-2.42,1.71-6.25,1.08a7.8,7.8,0,0,1-5.23-3.07s.67,5.46,5.76,5.47C153.17,93.05,155.53,90.38,155.15,89.57Zm6.4-10.6c-.32-.27-3.14,2.89-3.8,3.86-.89,1.29.28,3,1.35,1.41S161.92,79.29,161.55,79Z"/><polygon class="cls-3" points="145.4 71.04 148.05 68.78 149.58 69.19 146.51 72.42 145.4 71.04"/><polygon class="cls-3" points="146.59 63.09 149.97 61.1 151.54 61.86 148.16 64.55 146.59 63.09"/><polygon class="cls-3" points="154.75 58.1 152.84 57.68 159.6 53.42 162.9 53.19 154.75 58.1"/><polygon class="cls-3" points="154.75 58.1 152.84 57.68 159.6 53.42 162.9 53.19 154.75 58.1"/><path class="cls-3" d="M172.28,71.83a2.17,2.17,0,0,0-4.26,0c-.26.72-.63,3,0,3.57a6.48,6.48,0,0,0,4.26,0C172.91,74.86,172.54,72.55,172.28,71.83Z"/><path class="cls-3" d="M172,76.59h-3.74a.47.47,0,0,0-.47.47v4.08a.76.76,0,0,0,.77.77h3.15a.77.77,0,0,0,.77-.77V77.06A.48.48,0,0,0,172,76.59Z"/><path class="cls-3" d="M171.85,30.45h-3.4a.4.4,0,0,0-.43.36v3.12a.65.65,0,0,0,.7.59h2.86a.65.65,0,0,0,.7-.59V30.81A.4.4,0,0,0,171.85,30.45Z"/><path class="cls-3" d="M171.85,25.8h-3.4a.4.4,0,0,0-.43.36v3.12a.65.65,0,0,0,.7.59h2.86a.65.65,0,0,0,.7-.59V26.16A.4.4,0,0,0,171.85,25.8Z"/><path class="cls-3" d="M172,83.43h-3.74a.47.47,0,0,0-.47.47V88a.77.77,0,0,0,.77.77h3.15a.78.78,0,0,0,.77-.77V83.9A.48.48,0,0,0,172,83.43Z"/><path class="cls-3" d="M172.5,90.74a.49.49,0,0,0-.48-.48h-3.74a.48.48,0,0,0-.47.48v4.07a.76.76,0,0,0,.77.77h3.15a.77.77,0,0,0,.77-.77Z"/><rect class="cls-14" x="13.4" y="232.72" width="94.1" height="94.1" rx="12.55"/><path class="cls-15" d="M95,326.82a12.55,12.55,0,0,0,12.55-12.55v-37l-.07-.06c-.08-.1-25.61-25.61-25.7-25.7-6.13-6.53-16.22-3.3-16.22-3.3-3.76.9-6,2.92-6.28,5.09,0,0-2.41,2.75-1.86,3.82-.82,2.41-2.23,1.4-3.22,1.77a1.45,1.45,0,0,0-.93,1.8L56.6,264H35c.62.39,16.94,17,17.32,17.25a8.93,8.93,0,0,0-4.9,5.08c-1.24,3.3-.07,5.8,2.06,7.75l6.56,6.56h0l.12,4.68a4.54,4.54,0,0,1,.73.57,43.19,43.19,0,0,1-5.07.52l2.76,2.55-10.1,3.16,15.71,14.69Z"/><path class="cls-3" d="M58.93,276.8,79.34,264H35L55.43,276.8l.07,2.45c1.06-.34,2.2-.65,3.39-1Z"/><path class="cls-3" d="M56.27,308.42,44.51,312.1H69.85l-11.77-3.68,0-.78a15.49,15.49,0,0,1-1.85.13Z"/><path class="cls-3" d="M59.08,296.8,59,299.26c1.74.92,2.75,1.9,2.48,3.58-.55,3.14-6.29,3.31-9.65,3.55,3,1.16,10.44,1.34,11.41-3.37C63.89,300,61.91,298.36,59.08,296.8Z"/><path class="cls-3" d="M55.61,283.57l.58,21.73a15.81,15.81,0,0,0,2-.43l.59-22.31A32.75,32.75,0,0,0,55.61,283.57Z"/><path class="cls-3" d="M54.91,283.13c4-1.71,37.89-6.47,29.71-27-5-12.45-19.1-7.93-19.1-7.93-3.76.9-6,2.92-6.28,5.09,0,0-2.41,2.75-1.86,3.82-.82,2.41-2.23,1.4-3.22,1.77-.64.16-1.27,1.19-.93,1.8-.06-.73.75-1.48,1.07-1.43.76-.22,2.53.91,3.67-1.79,2.08.32,8.17-1.68,9-5.11,13.58-5.18,22.56,13.51,6.47,21.51a62.46,62.46,0,0,1-13.85,4.91c-5.83,1.55-10.5,2.93-12.12,7.49-2.17,5.77,3,9.12,7.86,11.27l-.08-2.77c-2.45-1.31-6.55-3.56-5-7.36C51,285.37,52.67,284.09,54.91,283.13Z"/><rect class="cls-10" x="232.8" y="13.64" width="94.1" height="94.11" rx="12.55"/><path class="cls-11" d="M326.9,87.23v-27L297,30.3a2.71,2.71,0,0,0-3.84-.13L281.49,41.82Z"/><path class="cls-11" d="M260.17,63.14,248.52,74.8a2.71,2.71,0,0,0,.13,3.84l29.1,29.1h27Z"/><path class="cls-11" d="M326.9,90.52,266.55,30.17a2.71,2.71,0,0,0-3.84.13L248.65,44.36a2.71,2.71,0,0,0-.13,3.84l59.54,59.54h6.29A12.55,12.55,0,0,0,326.9,95.19Z"/><path class="cls-3" d="M311.18,74.8a2.73,2.73,0,0,1-.13,3.84L297,92.7a2.93,2.93,0,0,1-1.95.86,2.55,2.55,0,0,1-1.89-.73L248.52,48.2a2.71,2.71,0,0,1,.13-3.84L262.71,30.3a2.71,2.71,0,0,1,3.84-.13ZM266,31.92a1,1,0,0,0,0-1.46,1,1,0,1,0,0,1.46Zm5,5a1,1,0,0,0-.73-1.77,1.06,1.06,0,0,0-1,1,1,1,0,0,0,1.77.73Zm5,5a1,1,0,0,0,.3-.73,1,1,0,0,0-.3-.74,1,1,0,1,0,0,1.47Zm3.52,5A1,1,0,1,0,281,45.42a1.07,1.07,0,0,0-.74-.3,1,1,0,0,0-.73,1.77Zm6.46,5a1.05,1.05,0,0,0,0-1.47,1.05,1.05,0,0,0-1.47,0,1,1,0,0,0,0,1.47A1.05,1.05,0,0,0,286,51.88Zm5,5a1,1,0,0,0-1.48-1.47,1,1,0,0,0,0,1.46A1.05,1.05,0,0,0,290.94,56.87Zm5,5a1,1,0,0,0-1.47-1.47,1,1,0,0,0,1.47,1.47Zm5,5a1,1,0,0,0,.3-.73,1,1,0,0,0-.3-.74,1,1,0,1,0,0,1.47Zm3.52,5a1,1,0,0,0,.74.3,1,1,0,0,0,.73-.3,1.05,1.05,0,0,0,0-1.47,1.05,1.05,0,0,0-1.47,0,1.05,1.05,0,0,0,0,1.47Zm5.72,5.29a1,1,0,0,0,.73-.3,1,1,0,0,0,0-1.47,1.05,1.05,0,0,0-1.47,0,1.05,1.05,0,0,0,0,1.47A1,1,0,0,0,310.15,77.12ZM264.56,38.35a1,1,0,1,0-1.47,0A1,1,0,0,0,264.56,38.35Zm5,5a1,1,0,0,0,.31-.74,1.06,1.06,0,0,0-.3-.73,1,1,0,0,0-1.47,0,1,1,0,0,0-.31.73,1,1,0,0,0,1.77.74Zm4.26,5.29a1,1,0,0,0,1-1,1,1,0,0,0-2.08,0,1,1,0,0,0,1,1Zm20.69,19.65A1,1,0,0,0,293,66.81a1,1,0,0,0,0,1.47A1.05,1.05,0,0,0,294.49,68.28Zm5,5A1,1,0,0,0,298,71.8a1.06,1.06,0,0,0-.3.73,1,1,0,0,0,.31.74A1.05,1.05,0,0,0,299.48,73.27Zm5,5a1,1,0,0,0-.74-1.78,1,1,0,0,0-.73,1.78A1.05,1.05,0,0,0,304.47,78.26ZM258.13,39.79a1,1,0,0,0-1.47-1.47,1,1,0,1,0,1.47,1.47Zm5,5a1,1,0,0,0,.31-.74,1,1,0,0,0-.31-.73,1,1,0,0,0-1.77.73,1,1,0,0,0,.3.73A1,1,0,0,0,263.12,44.78Zm4.26,5.29a1,1,0,0,0,.73-.31,1,1,0,1,0-1.47,0A1,1,0,0,0,267.38,50.07Zm24.2,24.64a1.07,1.07,0,0,0,.74.3,1,1,0,0,0,.73-.31,1,1,0,0,0,.31-.73,1,1,0,0,0-.32-.74,1,1,0,0,0-1.46,0,1.06,1.06,0,0,0,0,1.48Zm5,5a1,1,0,0,0,.74.31,1.06,1.06,0,0,0,.73-.31,1,1,0,0,0,.3-.72,1,1,0,0,0-.3-.75,1.05,1.05,0,0,0-1.47,0,1,1,0,0,0-.3.74,1,1,0,0,0,.3.73Zm6.46,5a1,1,0,1,0-1.47,0A1.05,1.05,0,0,0,303,84.68ZM255.18,46.16a1.05,1.05,0,0,0,1.47,0,1.05,1.05,0,0,0,0-1.47,1.05,1.05,0,0,0-1.47,0,1.05,1.05,0,0,0,0,1.47Zm6.45,5a1,1,0,1,0-1.47,0A1,1,0,0,0,261.63,51.15Zm5,5a1,1,0,1,0-1.46,0A1,1,0,0,0,266.62,56.14Zm20,20a1,1,0,1,0-1.47-1.47,1,1,0,0,0,0,1.47A1.05,1.05,0,0,0,286.58,76.09Zm4.25,5.29a1,1,0,0,0,.73-.31,1,1,0,0,0,0-1.46,1,1,0,1,0-1.47,1.47A1,1,0,0,0,290.83,81.38Zm5,5a1,1,0,0,0,.73-.31,1,1,0,0,0,0-1.47,1.07,1.07,0,0,0-.74-.3,1,1,0,0,0,0,2.08ZM250.22,47.6a1,1,0,1,0-1.47,0A1,1,0,0,0,250.22,47.6Zm5,5a1.05,1.05,0,0,0,0-1.47,1.07,1.07,0,0,0-.74-.3,1,1,0,0,0-.73.3,1.07,1.07,0,0,0-.3.74,1,1,0,0,0,.3.73A1,1,0,0,0,255.21,52.58Zm5,5a1,1,0,1,0-1.47,0A1.05,1.05,0,0,0,260.2,57.57Zm5,5a1,1,0,1,0-1.47-1.47,1,1,0,0,0-.31.73,1,1,0,0,0,.31.74A1.05,1.05,0,0,0,265.19,62.56Zm5,5a1,1,0,1,0-1.46,0A1,1,0,0,0,270.17,67.55Zm5,5a1,1,0,1,0-1.46,0A1,1,0,0,0,275.16,72.54Zm5,5a1,1,0,0,0,0-1.47,1,1,0,0,0-.73-.31,1,1,0,1,0,.73,1.78Zm4.26,5.28a1,1,0,0,0,.73-.3,1,1,0,1,0-1.47,0A1,1,0,0,0,284.41,82.81Zm4.25,4.69a1,1,0,0,0,.73.3,1,1,0,0,0,.74-1.77,1,1,0,1,0-1.47,1.47Zm5,5a1,1,0,0,0,1.47,0,1,1,0,0,0,.3-.73,1.07,1.07,0,0,0-.3-.74,1,1,0,0,0-.74-.3,1,1,0,0,0-.73.3,1,1,0,0,0,0,1.47ZM279,47c-.53-.53-1.64-.29-2.47.55L265.88,58.2c-.84.83-1.08,1.94-.55,2.47L280.67,76a1.2,1.2,0,0,0,1.13.23,2.77,2.77,0,0,0,1.34-.78L293.82,64.8c.83-.84,1.07-1.94.54-2.47Z"/><path class="cls-3" d="M285.19,40.43a1,1,0,0,0-.73-.3,1.09,1.09,0,0,0-.74.3,1.06,1.06,0,0,0,0,1.48,1.05,1.05,0,0,0,1.47,0A1.06,1.06,0,0,0,285.19,40.43Zm5-3.52a1,1,0,0,0,0-1.46,1,1,0,0,0-.73-.3,1,1,0,0,0-.74.3,1,1,0,1,0,1.47,1.46Zm5.29-5.72a1,1,0,0,0-1.77-.73,1,1,0,0,0-.31.73,1,1,0,0,0,2.08,0Zm-3.86,10.68a1,1,0,0,0-1.46,1.47,1,1,0,0,0,.73.3,1.07,1.07,0,0,0,.74-.3A1,1,0,0,0,291.61,41.87Zm5-5a1.05,1.05,0,0,0-1.47,0,1,1,0,0,0-.31.74,1,1,0,0,0,.31.73,1,1,0,0,0,.72.3,1,1,0,0,0,.75-1.77Zm-3.56,12.88a1,1,0,0,0,.31-.74,1,1,0,0,0-.31-.72,1,1,0,0,0-.73-.31,1,1,0,0,0-.74.31,1,1,0,1,0,1.47,1.46Zm5-5a1,1,0,0,0,0-1.46,1,1,0,0,0-.73-.31,1,1,0,0,0,0,2.08,1.07,1.07,0,0,0,.74-.3Zm5-6.45a1,1,0,1,0,0,1.47A1,1,0,0,0,303,38.32Zm-3.3,12.2a1,1,0,1,0-1.77.73,1.05,1.05,0,0,0,1.47,0A1.06,1.06,0,0,0,299.73,50.52Zm5-5a1,1,0,0,0-.31-.73,1,1,0,1,0,0,1.46A1,1,0,0,0,304.72,45.53Zm-3.56,11.41a1,1,0,0,0-.3-.74,1,1,0,0,0-1.47,1.47,1,1,0,0,0,1.47,0A1,1,0,0,0,301.16,56.94Zm4.69-4.25a1,1,0,0,0,.3-.74,1,1,0,1,0-.3.74Zm5-5a1,1,0,0,0-.73-1.77,1,1,0,0,0-.74.3,1,1,0,0,0-.31.73,1,1,0,0,0,.31.74,1.05,1.05,0,0,0,1.47,0Zm-29.35-5.88,11.66-11.65a2.71,2.71,0,0,1,3.84.13l14.06,14.06a3,3,0,0,1,.86,2,2.55,2.55,0,0,1-.73,1.89L299.52,59.85Z"/><path class="cls-3" d="M260.25,66.84a1,1,0,0,0,0-1.47,1.05,1.05,0,0,0-1.47,0,1.09,1.09,0,0,0-.3.74,1,1,0,0,0,.3.73A1.05,1.05,0,0,0,260.25,66.84Zm-5,5a1,1,0,1,0-.73.31,1,1,0,0,0,.73-.31Zm-5,5a1,1,0,0,0,0-1.47,1,1,0,0,0-.73-.3,1,1,0,0,0-.73,1.77,1,1,0,0,0,1.46,0Zm11.41-3.55a1,1,0,1,0-1.46-1.47,1.05,1.05,0,0,0,0,1.47A1,1,0,0,0,261.68,73.27Zm-5,5a1,1,0,0,0,.31-.74,1,1,0,0,0-.3-.73,1,1,0,1,0,0,1.47Zm11.42-3.56a1,1,0,1,0-1.77-.73,1.06,1.06,0,0,0,1,1,1,1,0,0,0,.74-.31Zm-5,5a1.06,1.06,0,0,0,.3-.73,1,1,0,0,0-2.08,0,1,1,0,0,0,.31.73,1,1,0,0,0,1.46,0Zm-5,5a1,1,0,0,0-1.47-1.47,1,1,0,0,0,0,1.47A1.05,1.05,0,0,0,258.14,84.68Zm11.46-3.6a1.07,1.07,0,0,0,.3-.74,1,1,0,0,0-.3-.73,1,1,0,1,0-.73,1.77A1.06,1.06,0,0,0,269.6,81.08Zm-5,5a1,1,0,0,0,0-1.46,1,1,0,0,0-.73-.31,1,1,0,0,0-.73.3,1,1,0,0,0,.73,1.78A1,1,0,0,0,264.61,86.06ZM276,82.51A1,1,0,0,0,276,81a1,1,0,1,0-1.47,1.47,1,1,0,0,0,.74.3A1,1,0,0,0,276,82.51Zm-5,5A1,1,0,0,0,269.57,86a1,1,0,0,0-.31.74,1,1,0,0,0,.31.73,1,1,0,0,0,.73.3,1,1,0,0,0,.74-.3Zm-5,5a1,1,0,0,0,0-1.47,1,1,0,0,0-.74-.3,1,1,0,0,0-.73.3,1,1,0,0,0-.3.74,1,1,0,0,0,.3.73,1,1,0,0,0,1.46,0ZM278.2,81.17,266.55,92.83a2.59,2.59,0,0,1-1.9.73,3,3,0,0,1-1.94-.86L248.65,78.64a2.71,2.71,0,0,1-.13-3.84l11.65-11.66Z"/><rect class="cls-1" x="13.4" y="123.18" width="94.1" height="94.11" rx="12.55"/><path class="cls-2" d="M107.51,204.73V162.65c-.08-.09-13.81-13.83-13.89-13.89a3.53,3.53,0,0,0-2.6-1.13H44.86a3.43,3.43,0,0,0-3.39,2.58l-.09,0-14.94,3.62V186.4l31.08,30.88H95A12.55,12.55,0,0,0,107.51,204.73Z"/><path class="cls-3" d="M89.28,158.94a.38.38,0,0,1-.37.38H67.14a.38.38,0,0,1-.37-.38v-6.46a.38.38,0,0,1,.37-.38H88.91a.38.38,0,0,1,.37.38Zm.52-6.79a.41.41,0,0,0-.4-.42H66.65a.41.41,0,0,0-.4.42v7.12a.41.41,0,0,0,.4.42H89.4a.41.41,0,0,0,.4-.42Z"/><path class="cls-3" d="M72.31,162.4l-.08,0H67.62l-.08,0c-.36,0-.65.62-.65,1.39s.29,1.39.65,1.39h4.77c.36,0,.64-.62.64-1.39S72.67,162.4,72.31,162.4Z"/><path class="cls-3" d="M75.64,163.79A1.39,1.39,0,1,1,77,165.18,1.39,1.39,0,0,1,75.64,163.79Z"/><path class="cls-3" d="M80.1,163.79a1.39,1.39,0,1,1,1.39,1.39A1.39,1.39,0,0,1,80.1,163.79Z"/><path class="cls-3" d="M84.56,163.79A1.39,1.39,0,1,1,86,165.18,1.39,1.39,0,0,1,84.56,163.79Z"/><path class="cls-3" d="M72.31,167.05l-.08,0H67.62l-.08,0c-.36,0-.65.62-.65,1.39s.29,1.39.65,1.39h4.77c.36,0,.64-.62.64-1.39S72.67,167.05,72.31,167.05Z"/><path class="cls-3" d="M94.49,189.55A3.38,3.38,0,0,1,91,192.83H44.86a3.38,3.38,0,0,1-3.47-3.28V150.92a3.38,3.38,0,0,1,3.47-3.29H91a3.39,3.39,0,0,1,3.47,3.29Zm-32-36.48-19.58-3.31V186.9H62.46Zm28.68-1.23a1.77,1.77,0,0,0-1.77-1.77H66.69a1.77,1.77,0,0,0-1.77,1.77v24.74a1.77,1.77,0,0,0,1.77,1.77H89.36a1.77,1.77,0,0,0,1.77-1.77ZM72.31,182.08l-.08,0H67.62l-.08,0c-.36,0-.65.62-.65,1.39s.29,1.39.65,1.39h4.77c.36,0,.64-.62.64-1.39S72.67,182.08,72.31,182.08Zm8.22,0-.08,0H75.84l-.08,0c-.36,0-.64.62-.64,1.39s.28,1.39.64,1.39h4.77c.36,0,.64-.62.64-1.39S80.89,182.08,80.53,182.08Zm8.23,0-.09,0H84.06l-.08,0c-.36,0-.64.62-.64,1.39s.28,1.39.64,1.39h4.78c.35,0,.64-.62.64-1.39S89.11,182.08,88.76,182.08Z"/><path class="cls-3" d="M75.64,168.44A1.39,1.39,0,1,1,77,169.83,1.39,1.39,0,0,1,75.64,168.44Z"/><path class="cls-3" d="M80.1,168.44a1.39,1.39,0,1,1,1.39,1.39A1.39,1.39,0,0,1,80.1,168.44Z"/><path class="cls-3" d="M84.56,168.44A1.39,1.39,0,1,1,86,169.83,1.39,1.39,0,0,1,84.56,168.44Z"/><path class="cls-3" d="M75.64,173.09A1.39,1.39,0,1,1,77,174.48,1.39,1.39,0,0,1,75.64,173.09Z"/><path class="cls-3" d="M80.1,173.09a1.39,1.39,0,1,1,1.39,1.39A1.39,1.39,0,0,1,80.1,173.09Z"/><path class="cls-3" d="M84.56,173.09A1.39,1.39,0,1,1,86,174.48,1.39,1.39,0,0,1,84.56,173.09Z"/><path class="cls-3" d="M81.34,159l-.68-5.15-.82,3.55L79.23,155l-.08.3a.72.72,0,0,1-.73.44h-.66a.53.53,0,0,0-.53.3l-.24.88L76.53,155l-.83,4L75,153.86l-.82,3.54L73.6,155l-.08.3a.72.72,0,0,1-.73.44h-.66a.53.53,0,0,0-.53.3l-.25.88L70.9,155l-.83,4-.67-5.15-.82,3.55L68,155l-.08.3a.72.72,0,0,1-.73.44h-.39v-.19h.39a.55.55,0,0,0,.54-.3l.28-1,.59,2.32.88-3.81.67,5.07.77-3.72.48,2,0-.15a.71.71,0,0,1,.72-.44h.66a.54.54,0,0,0,.54-.3l.28-1,.59,2.32.88-3.81.67,5.07.77-3.72.48,2,0-.15a.71.71,0,0,1,.72-.44h.66a.54.54,0,0,0,.54-.3l.28-1,.59,2.32.88-3.81.67,5.07.77-3.72.48,2,0-.15a.71.71,0,0,1,.72-.44h.66a.54.54,0,0,0,.54-.3l.28-1,.59,2.32.89-3.81.66,5.07.77-3.72.48,2,0-.15a.71.71,0,0,1,.72-.44h.28v.19H89a.54.54,0,0,0-.53.3l-.24.88L87.79,155,87,159l-.68-5.14-.82,3.54L84.86,155l-.08.3a.71.71,0,0,1-.73.44h-.66a.53.53,0,0,0-.53.3l-.24.88L82.16,155Z"/><path class="cls-3" d="M41.38,150.19l19.88,3.62V186.4l-19.88-3.62Zm19.88,34.23v-29l-19.59-3.24v29Z"/><path class="cls-3" d="M41.37,182.78,26.44,186.4V153.81l14.93-3.62Zm-.21-1.6v-29l-14.51,3.24v29Z"/><path class="cls-3" d="M56.39,167.27l-.16-7.78-2.09,5.29L53.61,161l-.27.92a1.21,1.21,0,0,1-1.29.37l-1.14-.2a1.07,1.07,0,0,0-1.07.26l-.5.87-.6-3.17-2.06,5.49-.37-7.37-1.89,4.9-.48-3.43-.33.57c-.18.32-.64.31-1.22.29h0l-.69,0v-.19l.72,0c.51,0,.92,0,1-.18l.61-1.07.46,3.25,1.94-5.06.38,7.36,2-5.27.64,3.33.23-.41a1.24,1.24,0,0,1,1.28-.35l1.14.2c.48.09.94,0,1.07-.26l.52-1.76.55,4,2.18-5.51.15,7.78,2.16-5.42.45,3.48.22-.39a1.22,1.22,0,0,1,1.28-.35l.61.1,0,.2-.62-.11c-.48-.09-.94,0-1.07.26l-.51.89-.42-3.31Z"/><path class="cls-3" d="M31.68,167.07l-1.18-7.5-1.07,5.56-1-3.28-.52,1.29a.81.81,0,0,1-.66.36l-.22,0-.61.09,0-.19.61-.09.21,0c.26,0,.4-.07.53-.26l.72-1.79.9,3.05,1.13-5.87,1.11,7.07.56-5.92.56,3.23c.09-.38.3-.81.73-.87l.85-.19a.75.75,0,0,0,.64-.58v0l.47-1.41,1.11,3.13,1.28-6.26L39,164l.78-6,.36,3.14c.11-.37.32-.77.71-.81l.56-.08,0,.2-.56.08c-.48,0-.64.95-.66,1.3H40l-.25-2.21L39,165.39l-1.17-7.67-1.2,5.87-1.15-3.25-.29.86a.93.93,0,0,1-.79.75l-.85.19c-.63.09-.67,1.29-.67,1.3h-.19l-.41-2.38Z"/><path class="cls-3" d="M56.39,179l-.16-7.78-2.09,5.3-.53-3.79-.27.91a1.21,1.21,0,0,1-1.29.38l-1.14-.2c-.48-.09-.94,0-1.07.25l-.5.88-.6-3.18-2.06,5.5-.37-7.38-1.89,4.91-.48-3.44-.33.58c-.18.31-.64.3-1.22.28h0l-.69,0V172l.72,0c.51,0,.92,0,1-.19l.61-1.07.46,3.25,1.94-5.06.38,7.36,2-5.26.64,3.33.23-.41a1.24,1.24,0,0,1,1.28-.36l1.14.2c.48.09.94,0,1.07-.25l.52-1.76.55,4,2.18-5.51.15,7.79,2.16-5.43.45,3.48.22-.39a1.24,1.24,0,0,1,1.28-.35l.61.11,0,.19-.62-.11c-.48-.08-.94,0-1.07.26l-.51.9-.42-3.32Z"/><path class="cls-3" d="M31.68,178.76l-1.18-7.51-1.07,5.57-1-3.29-.52,1.29a.83.83,0,0,1-.66.37l-.22,0-.61.09,0-.2L27,175l.21,0c.26-.05.4-.07.53-.27l.72-1.79.9,3.05,1.13-5.87,1.11,7.07.56-5.91.56,3.22c.09-.38.3-.81.73-.87l.85-.19a.74.74,0,0,0,.64-.58v0l.47-1.42,1.11,3.13,1.28-6.25L39,175.68l.78-6,.36,3.15c.11-.38.32-.78.71-.81l.56-.08,0,.19-.56.08c-.48,0-.64,1-.66,1.3H40l-.25-2.22L39,177.08,37.8,169.4l-1.2,5.88L35.45,172l-.29.87a.93.93,0,0,1-.79.74l-.85.19c-.63.09-.67,1.29-.67,1.3l-.19,0-.41-2.39Z"/><rect class="cls-12" x="232.8" y="232.72" width="94.1" height="94.1" rx="12.55"/><path class="cls-13" d="M314.35,326.82H265.18c-.38-.24-17.15-17.23-17.58-17.5L265.89,291h0a11.33,11.33,0,0,0,2.61-1.91,6.48,6.48,0,0,0,2.05-4.37v-.06c.59-1.73,3-4.36,4.87-6.25,8.88-8.88,20.13-16.29,30-28.49h0c1.64-1.64,4.88-1.19,5.83,0,.37.3,15.22,15.18,15.56,15.52a.1.1,0,0,1,0,.05v48.8A12.55,12.55,0,0,1,314.35,326.82Z"/><path class="cls-3" d="M262.19,305.84a26.88,26.88,0,0,1-2.79,2.45c-6.09,4.56-11.53,1.2-11.58,1.16l-.22-.13L265.89,291h0a11.33,11.33,0,0,0,2.61-1.91,6.54,6.54,0,0,0,.71-.81,6,6,0,0,0,1.34-3.56v-.06c.59-1.73,3-4.36,4.87-6.25.45-.46.9-.89,1.31-1.28,5-4.76,16.66-14.39,20.91-18.64a108.78,108.78,0,0,0,7.79-8.57h0c1.68-1.68,4.8-1.1,5.73-.17s1.51,4-.16,5.71a111.54,111.54,0,0,0-8.59,7.81c-4.25,4.25-13.89,15.87-18.65,20.9-.39.41-.82.85-1.28,1.31-1.89,1.89-4.51,4.27-6.25,4.87h-.06a6,6,0,0,0-3.55,1.33,7.62,7.62,0,0,0-.81.71,12.42,12.42,0,0,0-1.86,2.68A46.81,46.81,0,0,1,262.19,305.84Zm14.52-21.6a.48.48,0,0,0,.68,0l27.73-27.73a.48.48,0,0,0,0-.68.48.48,0,0,0-.67,0l-27.74,27.74A.47.47,0,0,0,276.71,284.24Zm1.81-4.38a.46.46,0,0,0,.67,0l21.55-21.55a.47.47,0,0,0-.67-.67l-21.55,21.55A.46.46,0,0,0,278.52,279.86Zm3.24,2.58,21.56-21.55a.5.5,0,0,0,0-.68.49.49,0,0,0-.68,0l-21.55,21.55a.48.48,0,0,0,0,.68A.48.48,0,0,0,281.76,282.44Z"/></svg>