<svg xmlns="http://www.w3.org/2000/svg" viewBox="0 0 842.15 1216.44"><defs><style>.cls-1{isolation:isolate;}.cls-2{fill:#006794;}.cls-3{fill:#afdff9;}.cls-4{fill:#f0af85;}.cls-5{fill:#202b53;}.cls-6{fill:#d6c1c0;}.cls-6,.cls-7,.cls-8{mix-blend-mode:multiply;}.cls-7{fill:#edd4d3;}.cls-8{fill:none;stroke:#d6c1c0;stroke-miterlimit:10;stroke-width:15.02px;}.cls-9{fill:#dadada;}.cls-10{fill:#3eb3d7;}</style></defs><title>corona</title><g class="cls-1"><g id="Capa_1" data-name="Capa 1"><rect class="cls-2" width="842.15" height="1216.44"/><path class="cls-3" d="M1287.5,1487.55c55.58-174.31,155.12-231.54,155.12-231.54l126.21-88.45c.43-.12,154.6,0,154.6,0s158.18,178.71,178.37,320Z" transform="translate(-1059.65 -271.11)"/><polygon class="cls-4" points="663.78 896.45 382.97 984.9 354.56 761.53 579.11 667.51 631.96 802 663.78 896.45"/><path class="cls-4" d="M1768.15,659.06C1712.63,484.28,1597,451.2,1432,449c-186.64-2.42-261.75,67.45-287.83,151.61-10.28,33.2-1.11,94.15,6.56,130.05,7.13,33.2,15.26,49.48,15.87,61.1,1.56,30.05-22.86,81.07-46.48,89.13-7.68,2.63-10.86,19.07-8.69,22,5.83,7.91,22.08,10.51,33.78,23.25,20,21.83,9.54,44.37,30.08,77.69C1191.37,1030,1199.6,1069,1221,1105c14.79,24.87,105,39.94,161.07,20.3,121.76-42.63,320.69-93.67,355-190.79S1783.08,699.2,1768.15,659.06Z" transform="translate(-1059.65 -271.11)"/><path class="cls-5" d="M1859.78,746.2c-4-148.73-86.8-293.79-218.7-339.21-254.18-87.53-457.9,84.28-528.66,133.59-48.51,33.82-46,105,31.73,79.8,270.06-87.61,349,26.87,349,26.87s18.31,87.61,16.63,129.08,21.16,88.27,32.68,80.7c21.95-98,39.92-94.4,39.92-94.4s9.38,33.28,16.66,128.62c0,44.87,70.64,166.83,92.61,181.86C1727.53,1016.63,1862.32,840.2,1859.78,746.2Z" transform="translate(-1059.65 -271.11)"/><path class="cls-6" d="M1175.89,913.22s-12.35,9-34.83,9c-6.08-7.33-39.49-19.79-25-21.59C1122.27,899.88,1175.89,913.22,1175.89,913.22Z" transform="translate(-1059.65 -271.11)"/><path class="cls-5" d="M1185.93,710.85c5.17-8.22,87.47-4.88,100.83-2.73,27,4.34,59.19,37.28,54.6,42.19s-38.79-17.87-68.78-16c-11.61.75-70,8.94-77.62,6S1180.77,719.07,1185.93,710.85Z" transform="translate(-1059.65 -271.11)"/><path class="cls-7" d="M1442.62,1104.92s74.41-30.32,94.28-47.22,35.48-97.34,35.48-97.34l-49.68,82.13Z" transform="translate(-1059.65 -271.11)"/><path class="cls-4" d="M1554,816.48c1.33,45.24-1.46,79.19,37.7,74.3s82.3-37.63,83.55-82.88c1.41-49.83-31.37-71.14-63.85-74.17C1585.88,731.37,1552.52,766.08,1554,816.48Z" transform="translate(-1059.65 -271.11)"/><path class="cls-8" d="M1178.31,1009.13c17-12,73.19-19.07,94.72-27.63" transform="translate(-1059.65 -271.11)"/><path class="cls-5" d="M1238.78,784.17c.9,11.32,9.3,20,18.75,19.46s16.33-10.19,15.42-21.51-9.31-20-18.75-19.46S1237.85,772.85,1238.78,784.17Z" transform="translate(-1059.65 -271.11)"/><polygon class="cls-9" points="410.29 562.1 494.36 545.38 496.56 520.51 400.17 541.32 410.29 562.1"/><polygon class="cls-9" points="410.29 699.66 542.45 640.33 572.11 605.22 539.35 620.14 418 673.67 410.29 699.66"/><path class="cls-10" d="M1330.86,1141.49s-76.69-4.36-105.19-22.11c-64.74-40.32-123.91-170.4-123.91-218.75,0-29.69,55.89-66.26,57.69-71.41s145.62,18.3,300.37-16.79c15.17,10.38,38.72,95.07,24.27,137.85C1442.62,1073.11,1330.86,1141.49,1330.86,1141.49Z" transform="translate(-1059.65 -271.11)"/></g></g></svg>