<svg xmlns="http://www.w3.org/2000/svg" viewBox="0 0 700 700"><defs><style>.cls-1{fill:#071e15;}.cls-2,.cls-3{fill:#fff;}.cls-3,.cls-7{font-size:27.57px;letter-spacing:0.08em;}.cls-3,.cls-4,.cls-7{font-family:Rubik-Medium, Rubik;font-weight:500;}.cls-4{font-size:17.01px;letter-spacing:0.28em;}.cls-4,.cls-6{fill:#7d9e47;}.cls-5{letter-spacing:0.27em;}.cls-7,.cls-8{fill:#5a6b56;}</style></defs><title>logo</title><g id="BACKGROUND"><rect class="cls-1" width="700" height="350.5"/><rect class="cls-2" y="349.5" width="700" height="350.5"/></g><g id="OBJECT"><text class="cls-3" transform="translate(242.03 240.58)">GREEN HOUSE</text><text class="cls-4" transform="translate(273.46 262.56)">lo<tspan class="cls-5" x="24.1" y="0">r</tspan><tspan x="35.84" y="0">em ipsum</tspan></text><path class="cls-2" d="M355.85,120c-4.11,5.42-3.34,12.93-3.34,12.93s7.44-1.27,11.56-6.68,3.35-12.93,3.35-12.93S360,114.59,355.85,120Z"/><path class="cls-6" d="M353.76,150.33h0c0-4.44-.82-13.16-6.13-20.15-7.3-9.6-20-11.86-20.56-12l-3.93-.67-.41,4c-.05.55-1.28,13.42,6,23,5.22,6.87,13.23,10,17.56,11.23v23.83H300v-58.8l49-29.51-6.84-4.59-49.61,29.88v70.48h61.23ZM334.68,140c-3.19-4.2-4.21-9.48-4.5-13.19,3.49,1.27,8.31,3.66,11.5,7.86s4.21,9.49,4.5,13.2C342.7,146.63,337.89,144.25,334.68,140Z"/><polygon class="cls-2" points="355.2 78.84 348.02 83.16 348 83.17 400.01 115.49 400.01 193.51 315.06 193.51 315.06 200.97 407.47 200.97 407.47 111.35 355.2 78.84"/><text class="cls-7" transform="translate(242.03 595.08)">GREEN HOUSE</text><text class="cls-4" transform="translate(273.46 617.06)">lo<tspan class="cls-5" x="24.1" y="0">r</tspan><tspan x="35.84" y="0">em ipsum</tspan></text><path class="cls-6" d="M355.85,477.39c-4.11,5.42-3.34,12.93-3.34,12.93s7.44-1.27,11.56-6.68,3.35-12.93,3.35-12.93S360,472,355.85,477.39Z"/><path class="cls-6" d="M353.76,507.72h0c0-4.43-.82-13.16-6.13-20.15-7.3-9.6-20-11.86-20.56-11.95l-3.93-.67-.41,4c-.05.54-1.28,13.41,6,23,5.22,6.87,13.23,10,17.56,11.22V537H300V478.18l49-29.5-6.84-4.59L292.53,474v70.48h61.23Zm-19.08-10.31c-3.19-4.2-4.21-9.48-4.5-13.18,3.49,1.27,8.31,3.66,11.5,7.85s4.21,9.5,4.5,13.2C342.7,504,337.89,501.64,334.68,497.41Z"/><polygon class="cls-8" points="355.2 436.23 348.02 440.56 348 440.57 400.01 472.89 400.01 550.9 315.06 550.9 315.06 558.36 407.47 558.36 407.47 468.74 355.2 436.23"/></g></svg>