<svg xmlns="http://www.w3.org/2000/svg" viewBox="0 0 94.1 94.1"><defs><style>.cls-1{fill:#49616b;}.cls-2{fill:#2f434c;}.cls-3{fill:#fff;}</style></defs><title>Asset 2</title><g id="Layer_2" data-name="Layer 2"><g id="_1" data-name="1"><rect class="cls-1" width="94.1" height="94.1" rx="12.55"/><path class="cls-2" d="M81.55,94.1A12.54,12.54,0,0,0,94.1,81.55v-37L94,44.52l-25.7-25.7c-6.13-6.53-16.22-3.3-16.22-3.3-3.76.9-6,2.92-6.28,5.09,0,0-2.41,2.75-1.86,3.82-.83,2.41-2.23,1.4-3.23,1.77a1.45,1.45,0,0,0-.92,1.8l3.36,3.25H21.62c.62.39,16.94,17,17.32,17.25A8.93,8.93,0,0,0,34,53.58c-1.24,3.3-.07,5.81,2.06,7.75,0,0,6.55,6.56,6.56,6.56h0l.13,4.68s.73.49.73.58a45.29,45.29,0,0,1-5.07.51l2.75,2.55L31.1,79.38,46.82,94.07Z"/><path class="cls-3" d="M45.52,44.09,65.93,31.25H21.62L42,44.09l.06,2.44c1.07-.34,2.21-.65,3.39-1Z"/><path class="cls-3" d="M42.87,75.7,31.1,79.38H56.45L44.68,75.7l0-.78a13.43,13.43,0,0,1-1.85.13Z"/><path class="cls-3" d="M45.68,64.08l-.07,2.46c1.74.92,2.76,1.9,2.49,3.58-.55,3.14-6.29,3.31-9.65,3.55,3,1.16,10.43,1.34,11.41-3.36C50.49,67.28,48.51,65.64,45.68,64.08Z"/><path class="cls-3" d="M42.21,50.86l.58,21.72a14.22,14.22,0,0,0,2-.43l.59-22.31A29.39,29.39,0,0,0,42.21,50.86Z"/><path class="cls-3" d="M41.51,50.41c4-1.71,37.89-6.46,29.71-27-5-12.44-19.1-7.93-19.1-7.93-3.76.9-6,2.92-6.28,5.09,0,0-2.41,2.75-1.86,3.82-.83,2.41-2.23,1.4-3.23,1.77-.64.17-1.26,1.19-.92,1.8-.07-.73.75-1.48,1.06-1.43.77-.21,2.53.91,3.68-1.79,2.08.32,8.16-1.68,9-5.11C67.11,14.49,76.1,33.18,60,41.19a62.91,62.91,0,0,1-13.85,4.9C40.33,47.64,35.66,49,34,53.58c-2.17,5.77,3,9.13,7.85,11.27l-.07-2.77c-2.45-1.31-6.55-3.56-5-7.36C37.58,52.65,39.27,51.37,41.51,50.41Z"/></g></g></svg>