<svg xmlns="http://www.w3.org/2000/svg" viewBox="0 0 349.98 358.87"><defs><style>.cls-1{fill:#27debf;}.cls-2{opacity:0.7;}.cls-3{fill:#fff;}.cls-4{opacity:0.1;}.cls-5{opacity:0.15;}.cls-6{fill:#37474f;}.cls-7{fill:#455a64;}.cls-8{fill:#fafafa;}.cls-9{fill:#ebebeb;}.cls-10{fill:#263238;}.cls-11{fill:#e0e0e0;}.cls-12{fill:#f0f0f0;}</style></defs><title>Asset 1</title><g id="Layer_2" data-name="Layer 2"><g id="Home"><g id="Walls"><polygon class="cls-1" points="176.02 174.67 176.02 15.88 330.04 104.8 330.04 263.6 176.02 174.67"/><g class="cls-2"><polygon class="cls-3" points="176.02 174.67 176.02 15.88 330.04 104.8 330.04 263.6 176.02 174.67"/></g><polygon class="cls-1" points="176.02 174.67 176.02 15.88 22 104.8 22 263.6 176.02 174.67"/><g class="cls-2"><polygon class="cls-3" points="176.02 174.67 176.02 15.88 22 104.8 22 263.6 176.02 174.67"/></g><g class="cls-4"><polygon points="176.02 174.67 176.02 15.88 22 104.8 22 263.6 176.02 174.67"/></g><polygon class="cls-1" points="176.04 352.53 330.04 263.59 176.02 174.67 22 263.6 176.04 352.53"/><polygon class="cls-5" points="176.04 352.53 330.04 263.59 176.02 174.67 22 263.6 176.04 352.53"/><polygon class="cls-6" points="176.02 358.87 176.04 352.53 330.04 263.59 330.04 104.8 335.54 107.98 334.88 267.15 176.02 358.87"/><polygon class="cls-7" points="176.05 358.87 176.04 352.53 22.03 263.59 22.03 104.8 16.53 101.63 17.2 267.15 176.05 358.87"/><polygon class="cls-8" points="330.04 263.59 330.04 254.78 176.02 165.86 176.02 174.67 330.04 263.59"/><polygon class="cls-9" points="22 263.59 22 254.78 176.02 165.86 176.02 174.67 22 263.59"/></g><g id="Roof"><polygon class="cls-7" points="82.51 0 0 104.8 55.01 136.56 137.52 31.76 82.51 0"/><polygon class="cls-10" points="0 104.8 0 111.15 55.01 142.91 55.01 136.56 0 104.8"/><polygon class="cls-6" points="137.52 31.76 137.52 38.11 55.01 142.91 55.01 136.56 137.52 31.76"/><polygon class="cls-6" points="184.96 17.39 82.51 0 247.53 95.28 349.98 112.67 184.96 17.39"/><polygon class="cls-10" points="137.52 38.11 247.53 101.63 247.53 95.28 137.52 31.76 137.52 38.11"/><polygon class="cls-7" points="247.53 101.63 349.98 119.02 349.98 112.67 247.53 95.28 247.53 101.63"/><polygon class="cls-11" points="28.73 46.51 49.51 58.5 49.51 96.56 28.73 84.57 28.73 46.51"/><polygon class="cls-12" points="49.51 58.5 70.28 46.51 70.28 70.17 49.51 96.56 49.51 58.5"/><polygon class="cls-7" points="49.51 26.09 26.57 39.3 26.57 45.3 49.51 58.5 72.44 45.3 72.44 39.3 49.51 26.09"/><polygon class="cls-6" points="49.51 30.52 49.51 48.08 34.26 39.3 49.51 30.52"/><polygon class="cls-10" points="49.51 30.52 64.75 39.3 49.51 48.08 49.51 30.52"/><polygon class="cls-6" points="26.57 45.3 49.51 58.5 49.51 52.5 26.57 39.3 26.57 45.3"/><polygon class="cls-10" points="72.44 45.3 49.51 58.5 49.51 52.5 72.44 39.3 72.44 45.3"/></g></g></g></svg>