<svg xmlns="http://www.w3.org/2000/svg" viewBox="0 0 519.16 699"><defs><style>.cls-1{fill:#b2e0e9;}.cls-2{fill:#753a82;}.cls-3{fill:#494a4c;}.cls-4{fill:#5d6064;}.cls-5{fill:#fff;}.cls-6{fill:#89c5c5;}.cls-7{fill:#898580;}.cls-8{fill:#51504e;}</style></defs><title>erlemmayer 2</title><g id="Layer_2" data-name="Layer 2"><g id="Слой_1" data-name="Слой 1"><polygon class="cls-1" points="440.66 285.53 194.84 285.53 259.4 206.92 259.4 22.67 376.04 22.67 376.04 206.92 440.66 285.53"/><path class="cls-2" d="M492.92,349.1l-52.26-63.57H194.81L142.54,349.1c-31.63,38.53-4.95,97.37,44.11,97.37H448.81C497.87,446.47,524.56,387.63,492.92,349.1Z"/><rect class="cls-3" x="287.96" y="365.34" width="59.54" height="10.53"/><rect class="cls-3" x="287.96" y="291.65" width="59.54" height="10.53"/><rect class="cls-4" x="287.96" y="217.97" width="59.54" height="10.52"/><rect class="cls-4" x="287.96" y="144.28" width="59.54" height="10.52"/><rect class="cls-4" x="287.96" y="70.59" width="59.54" height="10.53"/><path class="cls-2" d="M276.38,297.81a28.84,28.84,0,1,1-28.84-29.15A29,29,0,0,1,276.38,297.81Z"/><path class="cls-5" d="M270.21,297.81a22.67,22.67,0,1,1-22.67-22.91A22.79,22.79,0,0,1,270.21,297.81Z"/><path class="cls-5" d="M415.87,312.78a21.13,21.13,0,1,1-21.13-21.13A21.13,21.13,0,0,1,415.87,312.78Z"/><path class="cls-5" d="M423.05,402.18a13.74,13.74,0,1,1-13.74-13.74A13.74,13.74,0,0,1,423.05,402.18Z"/><path class="cls-2" d="M367.86,250.63a10.18,10.18,0,1,1-10.17-10.17A10.18,10.18,0,0,1,367.86,250.63Z"/><path class="cls-2" d="M335.33,189a13.89,13.89,0,1,1-13.88-13.88A13.89,13.89,0,0,1,335.33,189Z"/><path class="cls-1" d="M389.52,6.49v9.68a6.49,6.49,0,0,1-6.5,6.5H253.15a6.54,6.54,0,0,1-6.55-6.5V6.49A6.53,6.53,0,0,1,253.15,0H383A6.48,6.48,0,0,1,389.52,6.49Z"/><rect class="cls-6" x="259.4" y="22.67" width="116.64" height="21.33"/><path class="cls-7" d="M93.88,663.47H65.37V39.74A14.25,14.25,0,0,1,79.62,25.49h0A14.25,14.25,0,0,1,93.88,39.74Z"/><rect class="cls-7" y="80.2" width="259.37" height="28.51"/><path class="cls-7" d="M429.5,94.45h0a14.26,14.26,0,0,1-14.25,14.26h-39.2V80.2h39.2A14.25,14.25,0,0,1,429.5,94.45Z"/><path class="cls-8" d="M61.45,663.47H489.83a29.33,29.33,0,0,1,29.33,29.33V699a0,0,0,0,1,0,0h-487a0,0,0,0,1,0,0v-6.2A29.34,29.34,0,0,1,61.45,663.47Z"/><rect class="cls-7" x="259.37" y="84.61" width="116.68" height="18.56"/></g></g></svg>