<svg xmlns="http://www.w3.org/2000/svg" viewBox="0 0 480.43 841.29"><defs><style>.cls-1{fill:#41b9ea;}.cls-2{fill:#00a7da;}.cls-3{fill:#f05d22;}.cls-4{fill:#fff;}</style></defs><title>erlemmayer 1</title><g id="Layer_2" data-name="Layer 2"><g id="Слой_1" data-name="Слой 1"><path class="cls-1" d="M118.38,158.67a39.75,39.75,0,1,0,0,79.49H134.8v147A240.21,240.21,0,0,0,0,601.08C0,733.74,107.55,841.29,240.21,841.29c1.45,0,2.89-.09,4.33-.11V158.67Z"/><path class="cls-2" d="M480.43,601.08A240.2,240.2,0,0,0,345.63,385.2v-147h16.42a39.75,39.75,0,1,0,0-79.49H244.54V841.18C375.2,838.87,480.43,732.29,480.43,601.08Z"/><path class="cls-3" d="M240.21,780.8A173.68,173.68,0,0,0,413.9,607.12H66.53A173.68,173.68,0,0,0,240.21,780.8Z"/><path class="cls-4" d="M298.11,443.37V207.05H182.32V443.37A173.71,173.71,0,0,0,66.53,607.12H413.9A173.71,173.71,0,0,0,298.11,443.37Z"/><path class="cls-3" d="M226.07,546.9a36.57,36.57,0,1,1-36.57-36.55A36.57,36.57,0,0,1,226.07,546.9Z"/><path class="cls-3" d="M307.3,88.94a36.57,36.57,0,1,1-36.57-36.56A36.58,36.58,0,0,1,307.3,88.94Z"/><path class="cls-4" d="M298.92,694a36.56,36.56,0,1,1-36.56-36.56A36.57,36.57,0,0,1,298.92,694Z"/><path class="cls-3" d="M296.92,500a26.19,26.19,0,1,1-26.19-26.18A26.18,26.18,0,0,1,296.92,500Z"/><path class="cls-4" d="M215.7,657.4a26.2,26.2,0,1,1-26.2-26.19A26.2,26.2,0,0,1,215.7,657.4Z"/><path class="cls-3" d="M262.36,411a26.2,26.2,0,1,1-26.2-26.2A26.18,26.18,0,0,1,262.36,411Z"/><path class="cls-3" d="M241.89,26.19A26.2,26.2,0,1,1,215.7,0,26.19,26.19,0,0,1,241.89,26.19Z"/></g></g></svg>